<mxfile host="app.diagrams.net" modified="2022-09-19T14:34:01.960Z" agent="5.0 (Macintosh; Intel Mac OS X 10_15_7) AppleWebKit/537.36 (KHTML, like Gecko) Chrome/105.0.0.0 Safari/537.36" etag="nySO020HBhuE7LEhrc9g" version="20.3.2" type="github">
  <diagram id="3228e29e-7158-1315-38df-8450db1d8a1d" name="Page-1">
    <mxGraphModel dx="799" dy="407" grid="0" gridSize="10" guides="1" tooltips="1" connect="1" arrows="1" fold="1" page="1" pageScale="1" pageWidth="600" pageHeight="180" background="#EFF1F3" math="0" shadow="0">
      <root>
        <mxCell id="0" />
        <mxCell id="1" parent="0" />
        <mxCell id="LvesvwtV2vatUiFBe1HR-21533" value="" style="shape=image;verticalLabelPosition=bottom;verticalAlign=top;imageAspect=0;aspect=fixed;image=data:image/svg+xml,PHN2ZyB4bWxuczp4bGluaz0iaHR0cDovL3d3dy53My5vcmcvMTk5OS94bGluayIgeG1sbnM9Imh0dHA6Ly93d3cudzMub3JnLzIwMDAvc3ZnIiBoZWlnaHQ9IjIwMCIgd2lkdGg9IjIwMCIgdmVyc2lvbj0iMS4xIiB2aWV3Qm94PSIwIDAgMTAyNCAxMDI0IiBjbGFzcz0iaWNvbiI+PGRlZnM+PHN0eWxlIHR5cGU9InRleHQvY3NzIj5AZm9udC1mYWNlIHsgZm9udC1mYW1pbHk6IGZlZWRiYWNrLWljb25mb250OyBzcmM6IHVybCgiLy9hdC5hbGljZG4uY29tL3QvZm9udF8xMDMxMTU4X3U2OXc4eWh4ZHUud29mZjI/dD0xNjMwMDMzNzU5OTQ0IikgZm9ybWF0KCJ3b2ZmMiIpLCB1cmwoIi8vYXQuYWxpY2RuLmNvbS90L2ZvbnRfMTAzMTE1OF91Njl3OHloeGR1LndvZmY/dD0xNjMwMDMzNzU5OTQ0IikgZm9ybWF0KCJ3b2ZmIiksIHVybCgiLy9hdC5hbGljZG4uY29tL3QvZm9udF8xMDMxMTU4X3U2OXc4eWh4ZHUudHRmP3Q9MTYzMDAzMzc1OTk0NCIpIGZvcm1hdCgidHJ1ZXR5cGUiKTsgfSYjeGE7PC9zdHlsZT48L2RlZnM+PHBhdGggZmlsbD0iIzRBOTE5QiIgZD0iTTg0Mi4zOTQ1OTUgNzk5LjczMzIzNyA2NDAuOTczMDc2IDc5OS43MzMyMzcgNjQwLjk3MzA3NiA5MTQuODI1NTA4bDU3LjU0OTAwNSAwYzE1LjkwMzg1MyAwIDI4Ljc3NDUwMyAxMi44NjkwOTkgMjguNzc0NTAzIDI4Ljc3MzMyNCAwIDE1LjkwMzIwMi0xMi44NzA2NDkgMjguNzcyMy0yOC43NzQ1MDMgMjguNzcyM0wzNTMuMjI4MDUgOTcyLjM3MTEzMmMtMTUuOTA0ODc3IDAtMjguNzc0NTAzLTEyLjg2OTA5OS0yOC43NzQ1MDMtMjguNzcyMyAwLTE1LjkwNDIyNSAxMi44Njk2MjYtMjguNzczMzI0IDI4Ljc3NDUwMy0yOC43NzMzMjRsNTcuNTQ5MDA1IDBMNDEwLjc3NzA1NSA3OTkuNzMzMjM3IDE4MC41ODEwMzQgNzk5LjczMzIzN2MtNjMuNTYyMTk5IDAtMTE1LjA5ODAxMS01MS41MzM3LTExNS4wOTgwMTEtMTE1LjA5MzI5NUw2NS40ODMwMjMgMTY2LjcyMDExNmMwLTYzLjU1OTU5NSA1MS41MzU4MTItMTE1LjA5MzI5NSAxMTUuMDk4MDExLTExNS4wOTMyOTVsNjYxLjgxMjUzNyAwYzYzLjU2MTE3NiAwIDExNS4wOTgwMTEgNTEuNTMzNyAxMTUuMDk4MDExIDExNS4wOTMyOTVsMCA1MTcuOTE5ODI2Qzk1Ny40OTE1ODIgNzQ4LjE5ODUxMyA5MDUuOTU1NzcgNzk5LjczMzIzNyA4NDIuMzk0NTk1IDc5OS43MzMyMzd6TTU4My40MjQwNzEgOTE0LjgyNTUwOCA1ODMuNDI0MDcxIDc5OS43MzMyMzcgNDY4LjMyNjA2IDc5OS43MzMyMzcgNDY4LjMyNjA2IDkxNC44MjU1MDggNTgzLjQyNDA3MSA5MTQuODI1NTA4ek04OTkuOTQyNTc3IDE2Ni43MjAxMTZjMC0zMS43Nzk3OTctMjUuNzY3OTA2LTU3LjU0NjY0Ny01Ny41NDc5ODItNTcuNTQ2NjQ3TDE4MC41ODEwMzQgMTA5LjE3MzQ2OGMtMzEuNzgxMDk5IDAtNTcuNTQ5MDA1IDI1Ljc2Njg1LTU3LjU0OTAwNSA1Ny41NDY2NDdsMCA0MDIuODI2NTMyTDg5OS45NDI1NzcgNTY5LjU0NjY0NyA4OTkuOTQyNTc3IDE2Ni43MjAxMTZ6TTg5OS45NDI1NzcgNjI3LjA5MzI5NSAxMjMuMDMzMDUyIDYyNy4wOTMyOTVsMCA1Ny41NDY2NDdjMCAzMS43Nzk3OTcgMjUuNzY3OTA2IDU3LjU0NTYyNCA1Ny41NDkwMDUgNTcuNTQ1NjI0bDY2MS44MTI1MzcgMGMzMS43ODEwOTkgMCA1Ny41NDc5ODItMjUuNzY2ODUgNTcuNTQ3OTgyLTU3LjU0NTYyNEw4OTkuOTQyNTc3IDYyNy4wOTMyOTV6Ii8+PC9zdmc+" parent="1" vertex="1">
          <mxGeometry x="28.120000000000005" y="461.75" width="40" height="40" as="geometry" />
        </mxCell>
        <mxCell id="LvesvwtV2vatUiFBe1HR-21534" value="" style="shape=image;verticalLabelPosition=bottom;verticalAlign=top;imageAspect=0;aspect=fixed;image=data:image/svg+xml,PHN2ZyB4bWxuczp4bGluaz0iaHR0cDovL3d3dy53My5vcmcvMTk5OS94bGluayIgeG1sbnM9Imh0dHA6Ly93d3cudzMub3JnLzIwMDAvc3ZnIiBoZWlnaHQ9IjIwMCIgd2lkdGg9IjIwMCIgdmVyc2lvbj0iMS4xIiB2aWV3Qm94PSIwIDAgMTAyNCAxMDI0IiBjbGFzcz0iaWNvbiI+PGRlZnM+PHN0eWxlIHR5cGU9InRleHQvY3NzIj5AZm9udC1mYWNlIHsgZm9udC1mYW1pbHk6IGZlZWRiYWNrLWljb25mb250OyBzcmM6IHVybCgiLy9hdC5hbGljZG4uY29tL3QvZm9udF8xMDMxMTU4X3U2OXc4eWh4ZHUud29mZjI/dD0xNjMwMDMzNzU5OTQ0IikgZm9ybWF0KCJ3b2ZmMiIpLCB1cmwoIi8vYXQuYWxpY2RuLmNvbS90L2ZvbnRfMTAzMTE1OF91Njl3OHloeGR1LndvZmY/dD0xNjMwMDMzNzU5OTQ0IikgZm9ybWF0KCJ3b2ZmIiksIHVybCgiLy9hdC5hbGljZG4uY29tL3QvZm9udF8xMDMxMTU4X3U2OXc4eWh4ZHUudHRmP3Q9MTYzMDAzMzc1OTk0NCIpIGZvcm1hdCgidHJ1ZXR5cGUiKTsgfSYjeGE7PC9zdHlsZT48L2RlZnM+PHBhdGggZmlsbD0iIzRBOTE5QiIgZD0iTTAgNzI4djEzNmMwIDM1LjMgMjguNyA2NCA2NCA2NGg4OTZjMzUuMyAwIDY0LTI4LjcgNjQtNjRWNzI4YzAtNC40LTMuNi04LTgtOEg4Yy00LjQgMC04IDMuNi04IDh6IG03NzQgOTZjMCA0LjQtMy42IDgtOCA4SDQyNGMtNC40IDAtOC0zLjYtOC04di00OGMwLTQuNCAzLjYtOCA4LThoMzQyYzQuNCAwIDggMy42IDggOHY0OHogbTEyMiAwYzAgNC40LTMuNiA4LTggOGgtNDhjLTQuNCAwLTgtMy42LTgtOHYtNDhjMC00LjQgMy42LTggOC04aDQ4YzQuNCAwIDggMy42IDggOHY0OHpNMCA1MzZ2MTQ0YzAgNC40IDMuNiA4IDggOGgxMDA4YzQuNCAwIDgtMy42IDgtOFY1MzZjMC00LjQtMy42LTgtOC04SDhjLTQuNCAwLTggMy42LTggOHogbTc3NCA5NmMwIDQuNC0zLjYgOC04IDhINDI0Yy00LjQgMC04LTMuNi04LTh2LTQ4YzAtNC40IDMuNi04IDgtOGgzNDJjNC40IDAgOCAzLjYgOCA4djQ4eiBtMTIyIDBjMCA0LjQtMy42IDgtOCA4aC00OGMtNC40IDAtOC0zLjYtOC04di00OGMwLTQuNCAzLjYtOCA4LThoNDhjNC40IDAgOCAzLjYgOCA4djQ4ek0wIDM0NHYxNDRjMCA0LjQgMy42IDggOCA4aDEwMDhjNC40IDAgOC0zLjYgOC04VjM0NGMwLTQuNC0zLjYtOC04LThIOGMtNC40IDAtOCAzLjYtOCA4eiBtNzc0IDk2YzAgNC40LTMuNiA4LTggOEg0MjRjLTQuNCAwLTgtMy42LTgtOHYtNDhjMC00LjQgMy42LTggOC04aDM0MmM0LjQgMCA4IDMuNiA4IDh2NDh6IG0xMjIgMGMwIDQuNC0zLjYgOC04IDhoLTQ4Yy00LjQgMC04LTMuNi04LTh2LTQ4YzAtNC40IDMuNi04IDgtOGg0OGM0LjQgMCA4IDMuNiA4IDh2NDh6TTk2MCA5Nkg2NGMtMzUuMyAwLTY0IDI4LjctNjQgNjR2MTM2YzAgNC40IDMuNiA4IDggOGgxMDA4YzQuNCAwIDgtMy42IDgtOFYxNjBjMC0zNS4zLTI4LjctNjQtNjQtNjR6TTc3NCAyNDhjMCA0LjQtMy42IDgtOCA4SDQyNGMtNC40IDAtOC0zLjYtOC04di00OGMwLTQuNCAzLjYtOCA4LThoMzQyYzQuNCAwIDggMy42IDggOHY0OHogbTEyMiAwYzAgNC40LTMuNiA4LTggOGgtNDhjLTQuNCAwLTgtMy42LTgtOHYtNDhjMC00LjQgMy42LTggOC04aDQ4YzQuNCAwIDggMy42IDggOHY0OHoiLz48L3N2Zz4=" parent="1" vertex="1">
          <mxGeometry x="539.12" y="464.25" width="35" height="35" as="geometry" />
        </mxCell>
        <mxCell id="jsef9Xo3sPEI110m0m4C-1" value="" style="rounded=1;whiteSpace=wrap;html=1;strokeColor=none;fillColor=#E6D7C2;" parent="1" vertex="1">
          <mxGeometry x="152.12" y="389" width="333" height="117" as="geometry" />
        </mxCell>
        <mxCell id="jsef9Xo3sPEI110m0m4C-2" value="" style="shape=image;verticalLabelPosition=bottom;labelBackgroundColor=default;verticalAlign=top;aspect=fixed;imageAspect=0;image=data:image/svg+xml,PHN2ZyB4bWxuczp4bGluaz0iaHR0cDovL3d3dy53My5vcmcvMTk5OS94bGluayIgeG1sbnM9Imh0dHA6Ly93d3cudzMub3JnLzIwMDAvc3ZnIiBoZWlnaHQ9IjIwMCIgd2lkdGg9IjIwMCIgdmVyc2lvbj0iMS4xIiB2aWV3Qm94PSIwIDAgMTAyNCAxMDI0IiBjbGFzcz0iaWNvbiI+PHBhdGggZmlsbD0iIzRBOTE5QiIgZD0iTTczNC43NzQ2MTMgNjgyLjY2NjY2N2gtNDQzLjczMzMzM2MtMTAuMjQgMC0xNy4wNjY2NjctNi44MjY2NjctMTcuMDY2NjY3LTE3LjA2NjY2N3M2LjgyNjY2Ny0xNy4wNjY2NjcgMTcuMDY2NjY3LTE3LjA2NjY2N2g0NDMuNzMzMzMzYzEwLjI0IDAgMTcuMDY2NjY3IDYuODI2NjY3IDE3LjA2NjY2NyAxNy4wNjY2NjdzLTYuODI2NjY3IDE3LjA2NjY2Ny0xNy4wNjY2NjcgMTcuMDY2NjY3ek03MDAuNjQxMjggNDc3Ljg2NjY2N2gtMzQxLjMzMzMzM2MtNi44MjY2NjcgMC0xMC4yNC0zLjQxMzMzMy0xMy42NTMzMzQtNi44MjY2NjctMy40MTMzMzMtMy40MTMzMzMtMy40MTMzMzMtMTAuMjQtMy40MTMzMzMtMTcuMDY2NjY3IDAtMy40MTMzMzMgMjcuMzA2NjY3LTg1LjMzMzMzMyA3NS4wOTMzMzMtMTEyLjY0IDYuODI2NjY3LTMuNDEzMzMzIDE3LjA2NjY2Ny0zLjQxMzMzMyAyMy44OTMzMzQgNi44MjY2NjcgMy40MTMzMzMgNi44MjY2NjcgMy40MTMzMzMgMTcuMDY2NjY3LTYuODI2NjY3IDIzLjg5MzMzMy0yMy44OTMzMzMgMTMuNjUzMzMzLTQwLjk2IDQ0LjM3MzMzMy01MS4yIDcxLjY4aDMxNy40NGMxMC4yNCAwIDE3LjA2NjY2NyA2LjgyNjY2NyAxNy4wNjY2NjcgMTcuMDY2NjY3cy02LjgyNjY2NyAxNy4wNjY2NjctMTcuMDY2NjY3IDE3LjA2NjY2N3pNNTY0LjEwNzk0NyA1NDYuMTMzMzMzaC0zNC4xMzMzMzRjLTEwLjI0IDAtMTcuMDY2NjY3LTYuODI2NjY3LTE3LjA2NjY2Ni0xNy4wNjY2NjZzNi44MjY2NjctMTcuMDY2NjY3IDE3LjA2NjY2Ni0xNy4wNjY2NjdoMzQuMTMzMzM0YzEwLjI0IDAgMTcuMDY2NjY3IDYuODI2NjY3IDE3LjA2NjY2NiAxNy4wNjY2NjdzLTYuODI2NjY3IDE3LjA2NjY2Ny0xNy4wNjY2NjYgMTcuMDY2NjY2eiIvPjxwYXRoIGZpbGw9IiM0QTkxOUIiIGQ9Ik02Mi4zNDc5NDcgNjg2LjA4Yy0zNC4xMzMzMzMgMC02MS40NC0yNy4zMDY2NjctNjEuNDQtNjEuNDRWNTEyYzAtNTguMDI2NjY3IDQ3Ljc4NjY2Ny0xMDUuODEzMzMzIDEwMi40LTEwNS44MTMzMzNoMzQuMTMzMzMzYzIzLjg5MzMzMyAwIDUxLjItMTMuNjUzMzMzIDc4LjUwNjY2Ny00MC45Nmw0Ny43ODY2NjYtNTEuMkMyOTQuNDU0NjEzIDI4Ni43MiAzMzUuNDE0NjEzIDI2OS42NTMzMzMgMzc2LjM3NDYxMyAyNzMuMDY2NjY3bDE5NC41NiAxMy42NTMzMzNjMjMuODkzMzMzIDMuNDEzMzMzIDQ3Ljc4NjY2NyAxMC4yNCA3MS42OCAyMy44OTMzMzNsMTQzLjM2IDg4Ljc0NjY2N2MxMC4yNCA2LjgyNjY2NyAyMC40OCAxMC4yNCAzMC43MiAxMC4yNGwxMTYuMDUzMzM0IDEzLjY1MzMzM2M1MS4yIDYuODI2NjY3IDkyLjE2IDUxLjIgOTIuMTYgMTA1LjgxMzMzNHY0MC45NmMwIDQwLjk2LTIwLjQ4IDc1LjA5MzMzMy01OC4wMjY2NjcgOTIuMTZsLTU0LjYxMzMzMyAyMC40OGMtMTAuMjQgMy40MTMzMzMtMTcuMDY2NjY3LTMuNDEzMzMzLTIwLjQ4LTEwLjI0LTMuNDEzMzMzLTEwLjI0IDMuNDEzMzMzLTE3LjA2NjY2NyAxMC4yNC0yMC40OGw1NC42MTMzMzMtMTcuMDY2NjY3YzIwLjQ4LTEwLjI0IDM0LjEzMzMzMy0zNC4xMzMzMzMgMzQuMTMzMzMzLTYxLjQ0di00MC45NmMwLTM3LjU0NjY2Ny0yNy4zMDY2NjctNjguMjY2NjY3LTYxLjQ0LTcxLjY4bC0xMTYuMDUzMzMzLTEzLjY1MzMzM2MtMTcuMDY2NjY3IDAtMzQuMTMzMzMzLTYuODI2NjY3LTQ3Ljc4NjY2Ny0xNy4wNjY2NjdMNjIyLjEzNDYxMyAzNDEuMzMzMzMzYy0xNy4wNjY2NjctMTAuMjQtMzQuMTMzMzMzLTE3LjA2NjY2Ny01NC42MTMzMzMtMjAuNDhMMzc2LjM3NDYxMyAzMDcuMmMtMzQuMTMzMzMzLTMuNDEzMzMzLTY0Ljg1MzMzMyAxMC4yNC04OC43NDY2NjYgMzQuMTMzMzMzTDIzOS44NDEyOCAzOTIuNTMzMzMzYy0zNC4xMzMzMzMgMzQuMTMzMzMzLTY4LjI2NjY2NyA1MS4yLTEwMi40IDUxLjJIMTAzLjMwNzk0N2MtMzcuNTQ2NjY3IDAtNjguMjY2NjY3IDMwLjcyLTY4LjI2NjY2NyA3MS42OHYxMTIuNjRjMCAxMy42NTMzMzMgMTAuMjQgMjcuMzA2NjY3IDI3LjMwNjY2NyAyNy4zMDY2NjdMMTAzLjMwNzk0NyA2NDguNTMzMzMzYzEwLjI0IDAgMTcuMDY2NjY3IDYuODI2NjY3IDE3LjA2NjY2NiAxNy4wNjY2NjdzLTYuODI2NjY3IDE3LjA2NjY2Ny0xNy4wNjY2NjYgMTcuMDY2NjY3bC00MC45NiAzLjQxMzMzM3pNMTIwLjM3NDYxMyAzNzUuNDY2NjY3aC02LjgyNjY2NmwtMTAyLjQtMzQuMTMzMzM0Yy02LjgyNjY2Ny0zLjQxMzMzMy0xMy42NTMzMzMtMTMuNjUzMzMzLTEwLjI0LTIzLjg5MzMzMyAzLjQxMzMzMy02LjgyNjY2NyAxMy42NTMzMzMtMTMuNjUzMzMzIDIzLjg5MzMzMy0xMC4yNGwxMDIuNCAzNC4xMzMzMzNjMTAuMjQgMy40MTMzMzMgMTMuNjUzMzMzIDEzLjY1MzMzMyAxMC4yNCAyMC40OC0zLjQxMzMzMyAxMC4yNC0xMC4yNCAxMy42NTMzMzMtMTcuMDY2NjY3IDEzLjY1MzMzNHoiLz48cGF0aCBmaWxsPSIjNEE5MTlCIiBkPSJNODYuMjQxMjggNDQzLjczMzMzM2MtNi44MjY2NjcgMC0xMy42NTMzMzMtMy40MTMzMzMtMTcuMDY2NjY3LTEwLjI0bC0zNC4xMzMzMzMtODUuMzMzMzMzYy0zLjQxMzMzMy0xMC4yNCAwLTE3LjA2NjY2NyAxMC4yNC0yMy44OTMzMzMgMTAuMjQtMy40MTMzMzMgMTcuMDY2NjY3IDAgMjAuNDggMTAuMjRsMzQuMTMzMzMzIDg1LjMzMzMzM2MzLjQxMzMzMyAxMC4yNCAwIDE3LjA2NjY2Ny0xMC4yNCAyMy44OTMzMzNoLTMuNDEzMzMzek04MjAuMTA3OTQ3IDc1MC45MzMzMzNjLTU4LjAyNjY2NyAwLTEwMi40LTQ3Ljc4NjY2Ny0xMDIuNC0xMDIuNCAwLTU4LjAyNjY2NyA0Ny43ODY2NjctMTAyLjQgMTAyLjQtMTAyLjRzMTAyLjQgNDcuNzg2NjY3IDEwMi40IDEwMi40LTQ0LjM3MzMzMyAxMDIuNC0xMDIuNCAxMDIuNHogbTAtMTcwLjY2NjY2NmMtMzcuNTQ2NjY3IDAtNjguMjY2NjY3IDMwLjcyLTY4LjI2NjY2NyA2OC4yNjY2NjZzMzAuNzIgNjguMjY2NjY3IDY4LjI2NjY2NyA2OC4yNjY2NjcgNjguMjY2NjY3LTMwLjcyIDY4LjI2NjY2Ni02OC4yNjY2NjctMzAuNzItNjguMjY2NjY3LTY4LjI2NjY2Ni02OC4yNjY2NjZ6TTIwNS43MDc5NDcgNzUwLjkzMzMzM2MtNTguMDI2NjY3IDAtMTAyLjQtNDQuMzczMzMzLTEwMi40LTEwMi40czQ0LjM3MzMzMy0xMDIuNCAxMDIuNC0xMDIuNCAxMDIuNCA0NC4zNzMzMzMgMTAyLjQgMTAyLjQtNDQuMzczMzMzIDEwMi40LTEwMi40IDEwMi40eiBtMC0xNzAuNjY2NjY2Yy0zNy41NDY2NjcgMC02OC4yNjY2NjcgMzAuNzItNjguMjY2NjY3IDY4LjI2NjY2NnMzMC43MiA2OC4yNjY2NjcgNjguMjY2NjY3IDY4LjI2NjY2NyA2OC4yNjY2NjctMzAuNzIgNjguMjY2NjY2LTY4LjI2NjY2Ny0zMC43Mi02OC4yNjY2NjctNjguMjY2NjY2LTY4LjI2NjY2NnoiLz48L3N2Zz4=;" parent="1" vertex="1">
          <mxGeometry x="74.12" y="452.25" width="37" height="37" as="geometry" />
        </mxCell>
        <mxCell id="jsef9Xo3sPEI110m0m4C-4" value="" style="shape=image;verticalLabelPosition=bottom;labelBackgroundColor=default;verticalAlign=top;aspect=fixed;imageAspect=0;image=data:image/svg+xml,PHN2ZyB4bWxuczp4bGluaz0iaHR0cDovL3d3dy53My5vcmcvMTk5OS94bGluayIgeG1sbnM9Imh0dHA6Ly93d3cudzMub3JnLzIwMDAvc3ZnIiBoZWlnaHQ9IjIwMCIgd2lkdGg9IjIwMCIgdmVyc2lvbj0iMS4xIiB2aWV3Qm94PSIwIDAgMTAyNCAxMDI0IiBjbGFzcz0iaWNvbiI+PHBhdGggZmlsbD0iIzRBOTE5QiIgZD0iTTczNC43NzQ2MTMgNjgyLjY2NjY2N2gtNDQzLjczMzMzM2MtMTAuMjQgMC0xNy4wNjY2NjctNi44MjY2NjctMTcuMDY2NjY3LTE3LjA2NjY2N3M2LjgyNjY2Ny0xNy4wNjY2NjcgMTcuMDY2NjY3LTE3LjA2NjY2N2g0NDMuNzMzMzMzYzEwLjI0IDAgMTcuMDY2NjY3IDYuODI2NjY3IDE3LjA2NjY2NyAxNy4wNjY2NjdzLTYuODI2NjY3IDE3LjA2NjY2Ny0xNy4wNjY2NjcgMTcuMDY2NjY3ek03MDAuNjQxMjggNDc3Ljg2NjY2N2gtMzQxLjMzMzMzM2MtNi44MjY2NjcgMC0xMC4yNC0zLjQxMzMzMy0xMy42NTMzMzQtNi44MjY2NjctMy40MTMzMzMtMy40MTMzMzMtMy40MTMzMzMtMTAuMjQtMy40MTMzMzMtMTcuMDY2NjY3IDAtMy40MTMzMzMgMjcuMzA2NjY3LTg1LjMzMzMzMyA3NS4wOTMzMzMtMTEyLjY0IDYuODI2NjY3LTMuNDEzMzMzIDE3LjA2NjY2Ny0zLjQxMzMzMyAyMy44OTMzMzQgNi44MjY2NjcgMy40MTMzMzMgNi44MjY2NjcgMy40MTMzMzMgMTcuMDY2NjY3LTYuODI2NjY3IDIzLjg5MzMzMy0yMy44OTMzMzMgMTMuNjUzMzMzLTQwLjk2IDQ0LjM3MzMzMy01MS4yIDcxLjY4aDMxNy40NGMxMC4yNCAwIDE3LjA2NjY2NyA2LjgyNjY2NyAxNy4wNjY2NjcgMTcuMDY2NjY3cy02LjgyNjY2NyAxNy4wNjY2NjctMTcuMDY2NjY3IDE3LjA2NjY2N3pNNTY0LjEwNzk0NyA1NDYuMTMzMzMzaC0zNC4xMzMzMzRjLTEwLjI0IDAtMTcuMDY2NjY3LTYuODI2NjY3LTE3LjA2NjY2Ni0xNy4wNjY2NjZzNi44MjY2NjctMTcuMDY2NjY3IDE3LjA2NjY2Ni0xNy4wNjY2NjdoMzQuMTMzMzM0YzEwLjI0IDAgMTcuMDY2NjY3IDYuODI2NjY3IDE3LjA2NjY2NiAxNy4wNjY2NjdzLTYuODI2NjY3IDE3LjA2NjY2Ny0xNy4wNjY2NjYgMTcuMDY2NjY2eiIvPjxwYXRoIGZpbGw9IiM0QTkxOUIiIGQ9Ik02Mi4zNDc5NDcgNjg2LjA4Yy0zNC4xMzMzMzMgMC02MS40NC0yNy4zMDY2NjctNjEuNDQtNjEuNDRWNTEyYzAtNTguMDI2NjY3IDQ3Ljc4NjY2Ny0xMDUuODEzMzMzIDEwMi40LTEwNS44MTMzMzNoMzQuMTMzMzMzYzIzLjg5MzMzMyAwIDUxLjItMTMuNjUzMzMzIDc4LjUwNjY2Ny00MC45Nmw0Ny43ODY2NjYtNTEuMkMyOTQuNDU0NjEzIDI4Ni43MiAzMzUuNDE0NjEzIDI2OS42NTMzMzMgMzc2LjM3NDYxMyAyNzMuMDY2NjY3bDE5NC41NiAxMy42NTMzMzNjMjMuODkzMzMzIDMuNDEzMzMzIDQ3Ljc4NjY2NyAxMC4yNCA3MS42OCAyMy44OTMzMzNsMTQzLjM2IDg4Ljc0NjY2N2MxMC4yNCA2LjgyNjY2NyAyMC40OCAxMC4yNCAzMC43MiAxMC4yNGwxMTYuMDUzMzM0IDEzLjY1MzMzM2M1MS4yIDYuODI2NjY3IDkyLjE2IDUxLjIgOTIuMTYgMTA1LjgxMzMzNHY0MC45NmMwIDQwLjk2LTIwLjQ4IDc1LjA5MzMzMy01OC4wMjY2NjcgOTIuMTZsLTU0LjYxMzMzMyAyMC40OGMtMTAuMjQgMy40MTMzMzMtMTcuMDY2NjY3LTMuNDEzMzMzLTIwLjQ4LTEwLjI0LTMuNDEzMzMzLTEwLjI0IDMuNDEzMzMzLTE3LjA2NjY2NyAxMC4yNC0yMC40OGw1NC42MTMzMzMtMTcuMDY2NjY3YzIwLjQ4LTEwLjI0IDM0LjEzMzMzMy0zNC4xMzMzMzMgMzQuMTMzMzMzLTYxLjQ0di00MC45NmMwLTM3LjU0NjY2Ny0yNy4zMDY2NjctNjguMjY2NjY3LTYxLjQ0LTcxLjY4bC0xMTYuMDUzMzMzLTEzLjY1MzMzM2MtMTcuMDY2NjY3IDAtMzQuMTMzMzMzLTYuODI2NjY3LTQ3Ljc4NjY2Ny0xNy4wNjY2NjdMNjIyLjEzNDYxMyAzNDEuMzMzMzMzYy0xNy4wNjY2NjctMTAuMjQtMzQuMTMzMzMzLTE3LjA2NjY2Ny01NC42MTMzMzMtMjAuNDhMMzc2LjM3NDYxMyAzMDcuMmMtMzQuMTMzMzMzLTMuNDEzMzMzLTY0Ljg1MzMzMyAxMC4yNC04OC43NDY2NjYgMzQuMTMzMzMzTDIzOS44NDEyOCAzOTIuNTMzMzMzYy0zNC4xMzMzMzMgMzQuMTMzMzMzLTY4LjI2NjY2NyA1MS4yLTEwMi40IDUxLjJIMTAzLjMwNzk0N2MtMzcuNTQ2NjY3IDAtNjguMjY2NjY3IDMwLjcyLTY4LjI2NjY2NyA3MS42OHYxMTIuNjRjMCAxMy42NTMzMzMgMTAuMjQgMjcuMzA2NjY3IDI3LjMwNjY2NyAyNy4zMDY2NjdMMTAzLjMwNzk0NyA2NDguNTMzMzMzYzEwLjI0IDAgMTcuMDY2NjY3IDYuODI2NjY3IDE3LjA2NjY2NiAxNy4wNjY2NjdzLTYuODI2NjY3IDE3LjA2NjY2Ny0xNy4wNjY2NjYgMTcuMDY2NjY3bC00MC45NiAzLjQxMzMzM3pNMTIwLjM3NDYxMyAzNzUuNDY2NjY3aC02LjgyNjY2NmwtMTAyLjQtMzQuMTMzMzM0Yy02LjgyNjY2Ny0zLjQxMzMzMy0xMy42NTMzMzMtMTMuNjUzMzMzLTEwLjI0LTIzLjg5MzMzMyAzLjQxMzMzMy02LjgyNjY2NyAxMy42NTMzMzMtMTMuNjUzMzMzIDIzLjg5MzMzMy0xMC4yNGwxMDIuNCAzNC4xMzMzMzNjMTAuMjQgMy40MTMzMzMgMTMuNjUzMzMzIDEzLjY1MzMzMyAxMC4yNCAyMC40OC0zLjQxMzMzMyAxMC4yNC0xMC4yNCAxMy42NTMzMzMtMTcuMDY2NjY3IDEzLjY1MzMzNHoiLz48cGF0aCBmaWxsPSIjNEE5MTlCIiBkPSJNODYuMjQxMjggNDQzLjczMzMzM2MtNi44MjY2NjcgMC0xMy42NTMzMzMtMy40MTMzMzMtMTcuMDY2NjY3LTEwLjI0bC0zNC4xMzMzMzMtODUuMzMzMzMzYy0zLjQxMzMzMy0xMC4yNCAwLTE3LjA2NjY2NyAxMC4yNC0yMy44OTMzMzMgMTAuMjQtMy40MTMzMzMgMTcuMDY2NjY3IDAgMjAuNDggMTAuMjRsMzQuMTMzMzMzIDg1LjMzMzMzM2MzLjQxMzMzMyAxMC4yNCAwIDE3LjA2NjY2Ny0xMC4yNCAyMy44OTMzMzNoLTMuNDEzMzMzek04MjAuMTA3OTQ3IDc1MC45MzMzMzNjLTU4LjAyNjY2NyAwLTEwMi40LTQ3Ljc4NjY2Ny0xMDIuNC0xMDIuNCAwLTU4LjAyNjY2NyA0Ny43ODY2NjctMTAyLjQgMTAyLjQtMTAyLjRzMTAyLjQgNDcuNzg2NjY3IDEwMi40IDEwMi40LTQ0LjM3MzMzMyAxMDIuNC0xMDIuNCAxMDIuNHogbTAtMTcwLjY2NjY2NmMtMzcuNTQ2NjY3IDAtNjguMjY2NjY3IDMwLjcyLTY4LjI2NjY2NyA2OC4yNjY2NjZzMzAuNzIgNjguMjY2NjY3IDY4LjI2NjY2NyA2OC4yNjY2NjcgNjguMjY2NjY3LTMwLjcyIDY4LjI2NjY2Ni02OC4yNjY2NjctMzAuNzItNjguMjY2NjY3LTY4LjI2NjY2Ni02OC4yNjY2NjZ6TTIwNS43MDc5NDcgNzUwLjkzMzMzM2MtNTguMDI2NjY3IDAtMTAyLjQtNDQuMzczMzMzLTEwMi40LTEwMi40czQ0LjM3MzMzMy0xMDIuNCAxMDIuNC0xMDIuNCAxMDIuNCA0NC4zNzMzMzMgMTAyLjQgMTAyLjQtNDQuMzczMzMzIDEwMi40LTEwMi40IDEwMi40eiBtMC0xNzAuNjY2NjY2Yy0zNy41NDY2NjcgMC02OC4yNjY2NjcgMzAuNzItNjguMjY2NjY3IDY4LjI2NjY2NnMzMC43MiA2OC4yNjY2NjcgNjguMjY2NjY3IDY4LjI2NjY2NyA2OC4yNjY2NjctMzAuNzIgNjguMjY2NjY2LTY4LjI2NjY2Ny0zMC43Mi02OC4yNjY2NjctNjguMjY2NjY2LTY4LjI2NjY2NnoiLz48L3N2Zz4=;" parent="1" vertex="1">
          <mxGeometry x="292.12" y="454" width="55" height="55" as="geometry" />
        </mxCell>
        <mxCell id="jsef9Xo3sPEI110m0m4C-8" value="" style="rounded=1;whiteSpace=wrap;html=1;fillColor=none;dashed=1;strokeWidth=1;strokeColor=#4A919B;" parent="1" vertex="1">
          <mxGeometry x="161.12" y="464.25" width="59" height="34.5" as="geometry" />
        </mxCell>
        <mxCell id="jsef9Xo3sPEI110m0m4C-6" value="" style="shape=image;verticalLabelPosition=bottom;labelBackgroundColor=default;verticalAlign=top;aspect=fixed;imageAspect=0;image=data:image/svg+xml,PHN2ZyB4bWxuczp4bGluaz0iaHR0cDovL3d3dy53My5vcmcvMTk5OS94bGluayIgeG1sbnM9Imh0dHA6Ly93d3cudzMub3JnLzIwMDAvc3ZnIiBoZWlnaHQ9IjIwMCIgd2lkdGg9IjIwMCIgdmVyc2lvbj0iMS4xIiB2aWV3Qm94PSIwIDAgMTAyNCAxMDI0IiBjbGFzcz0iaWNvbiI+PHBhdGggZmlsbD0iIzUzNUU4MCIgZD0iTTczNC43NzQ2MTMgNjgyLjY2NjY2N2gtNDQzLjczMzMzM2MtMTAuMjQgMC0xNy4wNjY2NjctNi44MjY2NjctMTcuMDY2NjY3LTE3LjA2NjY2N3M2LjgyNjY2Ny0xNy4wNjY2NjcgMTcuMDY2NjY3LTE3LjA2NjY2N2g0NDMuNzMzMzMzYzEwLjI0IDAgMTcuMDY2NjY3IDYuODI2NjY3IDE3LjA2NjY2NyAxNy4wNjY2NjdzLTYuODI2NjY3IDE3LjA2NjY2Ny0xNy4wNjY2NjcgMTcuMDY2NjY3ek03MDAuNjQxMjggNDc3Ljg2NjY2N2gtMzQxLjMzMzMzM2MtNi44MjY2NjcgMC0xMC4yNC0zLjQxMzMzMy0xMy42NTMzMzQtNi44MjY2NjctMy40MTMzMzMtMy40MTMzMzMtMy40MTMzMzMtMTAuMjQtMy40MTMzMzMtMTcuMDY2NjY3IDAtMy40MTMzMzMgMjcuMzA2NjY3LTg1LjMzMzMzMyA3NS4wOTMzMzMtMTEyLjY0IDYuODI2NjY3LTMuNDEzMzMzIDE3LjA2NjY2Ny0zLjQxMzMzMyAyMy44OTMzMzQgNi44MjY2NjcgMy40MTMzMzMgNi44MjY2NjcgMy40MTMzMzMgMTcuMDY2NjY3LTYuODI2NjY3IDIzLjg5MzMzMy0yMy44OTMzMzMgMTMuNjUzMzMzLTQwLjk2IDQ0LjM3MzMzMy01MS4yIDcxLjY4aDMxNy40NGMxMC4yNCAwIDE3LjA2NjY2NyA2LjgyNjY2NyAxNy4wNjY2NjcgMTcuMDY2NjY3cy02LjgyNjY2NyAxNy4wNjY2NjctMTcuMDY2NjY3IDE3LjA2NjY2N3pNNTY0LjEwNzk0NyA1NDYuMTMzMzMzaC0zNC4xMzMzMzRjLTEwLjI0IDAtMTcuMDY2NjY3LTYuODI2NjY3LTE3LjA2NjY2Ni0xNy4wNjY2NjZzNi44MjY2NjctMTcuMDY2NjY3IDE3LjA2NjY2Ni0xNy4wNjY2NjdoMzQuMTMzMzM0YzEwLjI0IDAgMTcuMDY2NjY3IDYuODI2NjY3IDE3LjA2NjY2NiAxNy4wNjY2NjdzLTYuODI2NjY3IDE3LjA2NjY2Ny0xNy4wNjY2NjYgMTcuMDY2NjY2eiIvPjxwYXRoIGZpbGw9IiM1MzVFODAiIGQ9Ik02Mi4zNDc5NDcgNjg2LjA4Yy0zNC4xMzMzMzMgMC02MS40NC0yNy4zMDY2NjctNjEuNDQtNjEuNDRWNTEyYzAtNTguMDI2NjY3IDQ3Ljc4NjY2Ny0xMDUuODEzMzMzIDEwMi40LTEwNS44MTMzMzNoMzQuMTMzMzMzYzIzLjg5MzMzMyAwIDUxLjItMTMuNjUzMzMzIDc4LjUwNjY2Ny00MC45Nmw0Ny43ODY2NjYtNTEuMkMyOTQuNDU0NjEzIDI4Ni43MiAzMzUuNDE0NjEzIDI2OS42NTMzMzMgMzc2LjM3NDYxMyAyNzMuMDY2NjY3bDE5NC41NiAxMy42NTMzMzNjMjMuODkzMzMzIDMuNDEzMzMzIDQ3Ljc4NjY2NyAxMC4yNCA3MS42OCAyMy44OTMzMzNsMTQzLjM2IDg4Ljc0NjY2N2MxMC4yNCA2LjgyNjY2NyAyMC40OCAxMC4yNCAzMC43MiAxMC4yNGwxMTYuMDUzMzM0IDEzLjY1MzMzM2M1MS4yIDYuODI2NjY3IDkyLjE2IDUxLjIgOTIuMTYgMTA1LjgxMzMzNHY0MC45NmMwIDQwLjk2LTIwLjQ4IDc1LjA5MzMzMy01OC4wMjY2NjcgOTIuMTZsLTU0LjYxMzMzMyAyMC40OGMtMTAuMjQgMy40MTMzMzMtMTcuMDY2NjY3LTMuNDEzMzMzLTIwLjQ4LTEwLjI0LTMuNDEzMzMzLTEwLjI0IDMuNDEzMzMzLTE3LjA2NjY2NyAxMC4yNC0yMC40OGw1NC42MTMzMzMtMTcuMDY2NjY3YzIwLjQ4LTEwLjI0IDM0LjEzMzMzMy0zNC4xMzMzMzMgMzQuMTMzMzMzLTYxLjQ0di00MC45NmMwLTM3LjU0NjY2Ny0yNy4zMDY2NjctNjguMjY2NjY3LTYxLjQ0LTcxLjY4bC0xMTYuMDUzMzMzLTEzLjY1MzMzM2MtMTcuMDY2NjY3IDAtMzQuMTMzMzMzLTYuODI2NjY3LTQ3Ljc4NjY2Ny0xNy4wNjY2NjdMNjIyLjEzNDYxMyAzNDEuMzMzMzMzYy0xNy4wNjY2NjctMTAuMjQtMzQuMTMzMzMzLTE3LjA2NjY2Ny01NC42MTMzMzMtMjAuNDhMMzc2LjM3NDYxMyAzMDcuMmMtMzQuMTMzMzMzLTMuNDEzMzMzLTY0Ljg1MzMzMyAxMC4yNC04OC43NDY2NjYgMzQuMTMzMzMzTDIzOS44NDEyOCAzOTIuNTMzMzMzYy0zNC4xMzMzMzMgMzQuMTMzMzMzLTY4LjI2NjY2NyA1MS4yLTEwMi40IDUxLjJIMTAzLjMwNzk0N2MtMzcuNTQ2NjY3IDAtNjguMjY2NjY3IDMwLjcyLTY4LjI2NjY2NyA3MS42OHYxMTIuNjRjMCAxMy42NTMzMzMgMTAuMjQgMjcuMzA2NjY3IDI3LjMwNjY2NyAyNy4zMDY2NjdMMTAzLjMwNzk0NyA2NDguNTMzMzMzYzEwLjI0IDAgMTcuMDY2NjY3IDYuODI2NjY3IDE3LjA2NjY2NiAxNy4wNjY2NjdzLTYuODI2NjY3IDE3LjA2NjY2Ny0xNy4wNjY2NjYgMTcuMDY2NjY3bC00MC45NiAzLjQxMzMzM3pNMTIwLjM3NDYxMyAzNzUuNDY2NjY3aC02LjgyNjY2NmwtMTAyLjQtMzQuMTMzMzM0Yy02LjgyNjY2Ny0zLjQxMzMzMy0xMy42NTMzMzMtMTMuNjUzMzMzLTEwLjI0LTIzLjg5MzMzMyAzLjQxMzMzMy02LjgyNjY2NyAxMy42NTMzMzMtMTMuNjUzMzMzIDIzLjg5MzMzMy0xMC4yNGwxMDIuNCAzNC4xMzMzMzNjMTAuMjQgMy40MTMzMzMgMTMuNjUzMzMzIDEzLjY1MzMzMyAxMC4yNCAyMC40OC0zLjQxMzMzMyAxMC4yNC0xMC4yNCAxMy42NTMzMzMtMTcuMDY2NjY3IDEzLjY1MzMzNHoiLz48cGF0aCBmaWxsPSIjNTM1RTgwIiBkPSJNODYuMjQxMjggNDQzLjczMzMzM2MtNi44MjY2NjcgMC0xMy42NTMzMzMtMy40MTMzMzMtMTcuMDY2NjY3LTEwLjI0bC0zNC4xMzMzMzMtODUuMzMzMzMzYy0zLjQxMzMzMy0xMC4yNCAwLTE3LjA2NjY2NyAxMC4yNC0yMy44OTMzMzMgMTAuMjQtMy40MTMzMzMgMTcuMDY2NjY3IDAgMjAuNDggMTAuMjRsMzQuMTMzMzMzIDg1LjMzMzMzM2MzLjQxMzMzMyAxMC4yNCAwIDE3LjA2NjY2Ny0xMC4yNCAyMy44OTMzMzNoLTMuNDEzMzMzek04MjAuMTA3OTQ3IDc1MC45MzMzMzNjLTU4LjAyNjY2NyAwLTEwMi40LTQ3Ljc4NjY2Ny0xMDIuNC0xMDIuNCAwLTU4LjAyNjY2NyA0Ny43ODY2NjctMTAyLjQgMTAyLjQtMTAyLjRzMTAyLjQgNDcuNzg2NjY3IDEwMi40IDEwMi40LTQ0LjM3MzMzMyAxMDIuNC0xMDIuNCAxMDIuNHogbTAtMTcwLjY2NjY2NmMtMzcuNTQ2NjY3IDAtNjguMjY2NjY3IDMwLjcyLTY4LjI2NjY2NyA2OC4yNjY2NjZzMzAuNzIgNjguMjY2NjY3IDY4LjI2NjY2NyA2OC4yNjY2NjcgNjguMjY2NjY3LTMwLjcyIDY4LjI2NjY2Ni02OC4yNjY2NjctMzAuNzItNjguMjY2NjY3LTY4LjI2NjY2Ni02OC4yNjY2NjZ6TTIwNS43MDc5NDcgNzUwLjkzMzMzM2MtNTguMDI2NjY3IDAtMTAyLjQtNDQuMzczMzMzLTEwMi40LTEwMi40czQ0LjM3MzMzMy0xMDIuNCAxMDIuNC0xMDIuNCAxMDIuNCA0NC4zNzMzMzMgMTAyLjQgMTAyLjQtNDQuMzczMzMzIDEwMi40LTEwMi40IDEwMi40eiBtMC0xNzAuNjY2NjY2Yy0zNy41NDY2NjcgMC02OC4yNjY2NjcgMzAuNzItNjguMjY2NjY3IDY4LjI2NjY2NnMzMC43MiA2OC4yNjY2NjcgNjguMjY2NjY3IDY4LjI2NjY2NyA2OC4yNjY2NjctMzAuNzIgNjguMjY2NjY2LTY4LjI2NjY2Ny0zMC43Mi02OC4yNjY2NjctNjguMjY2NjY2LTY4LjI2NjY2NnoiLz48L3N2Zz4=;" parent="1" vertex="1">
          <mxGeometry x="163.12" y="420.5" width="55" height="55" as="geometry" />
        </mxCell>
        <mxCell id="jsef9Xo3sPEI110m0m4C-9" value="" style="rounded=1;whiteSpace=wrap;html=1;fillColor=none;dashed=1;strokeColor=#4A919B;" parent="1" vertex="1">
          <mxGeometry x="225.12" y="464.25" width="59" height="34.5" as="geometry" />
        </mxCell>
        <mxCell id="jsef9Xo3sPEI110m0m4C-11" value="" style="shape=image;verticalLabelPosition=bottom;labelBackgroundColor=default;verticalAlign=top;aspect=fixed;imageAspect=0;image=data:image/svg+xml,PHN2ZyB4bWxuczp4bGluaz0iaHR0cDovL3d3dy53My5vcmcvMTk5OS94bGluayIgeG1sbnM9Imh0dHA6Ly93d3cudzMub3JnLzIwMDAvc3ZnIiBoZWlnaHQ9IjIwMCIgd2lkdGg9IjIwMCIgdmVyc2lvbj0iMS4xIiB2aWV3Qm94PSIwIDAgMTAyNCAxMDI0IiBjbGFzcz0iaWNvbiI+PHBhdGggZmlsbD0iIzUzNUU4MCIgZD0iTTczNC43NzQ2MTMgNjgyLjY2NjY2N2gtNDQzLjczMzMzM2MtMTAuMjQgMC0xNy4wNjY2NjctNi44MjY2NjctMTcuMDY2NjY3LTE3LjA2NjY2N3M2LjgyNjY2Ny0xNy4wNjY2NjcgMTcuMDY2NjY3LTE3LjA2NjY2N2g0NDMuNzMzMzMzYzEwLjI0IDAgMTcuMDY2NjY3IDYuODI2NjY3IDE3LjA2NjY2NyAxNy4wNjY2NjdzLTYuODI2NjY3IDE3LjA2NjY2Ny0xNy4wNjY2NjcgMTcuMDY2NjY3ek03MDAuNjQxMjggNDc3Ljg2NjY2N2gtMzQxLjMzMzMzM2MtNi44MjY2NjcgMC0xMC4yNC0zLjQxMzMzMy0xMy42NTMzMzQtNi44MjY2NjctMy40MTMzMzMtMy40MTMzMzMtMy40MTMzMzMtMTAuMjQtMy40MTMzMzMtMTcuMDY2NjY3IDAtMy40MTMzMzMgMjcuMzA2NjY3LTg1LjMzMzMzMyA3NS4wOTMzMzMtMTEyLjY0IDYuODI2NjY3LTMuNDEzMzMzIDE3LjA2NjY2Ny0zLjQxMzMzMyAyMy44OTMzMzQgNi44MjY2NjcgMy40MTMzMzMgNi44MjY2NjcgMy40MTMzMzMgMTcuMDY2NjY3LTYuODI2NjY3IDIzLjg5MzMzMy0yMy44OTMzMzMgMTMuNjUzMzMzLTQwLjk2IDQ0LjM3MzMzMy01MS4yIDcxLjY4aDMxNy40NGMxMC4yNCAwIDE3LjA2NjY2NyA2LjgyNjY2NyAxNy4wNjY2NjcgMTcuMDY2NjY3cy02LjgyNjY2NyAxNy4wNjY2NjctMTcuMDY2NjY3IDE3LjA2NjY2N3pNNTY0LjEwNzk0NyA1NDYuMTMzMzMzaC0zNC4xMzMzMzRjLTEwLjI0IDAtMTcuMDY2NjY3LTYuODI2NjY3LTE3LjA2NjY2Ni0xNy4wNjY2NjZzNi44MjY2NjctMTcuMDY2NjY3IDE3LjA2NjY2Ni0xNy4wNjY2NjdoMzQuMTMzMzM0YzEwLjI0IDAgMTcuMDY2NjY3IDYuODI2NjY3IDE3LjA2NjY2NiAxNy4wNjY2NjdzLTYuODI2NjY3IDE3LjA2NjY2Ny0xNy4wNjY2NjYgMTcuMDY2NjY2eiIvPjxwYXRoIGZpbGw9IiM1MzVFODAiIGQ9Ik02Mi4zNDc5NDcgNjg2LjA4Yy0zNC4xMzMzMzMgMC02MS40NC0yNy4zMDY2NjctNjEuNDQtNjEuNDRWNTEyYzAtNTguMDI2NjY3IDQ3Ljc4NjY2Ny0xMDUuODEzMzMzIDEwMi40LTEwNS44MTMzMzNoMzQuMTMzMzMzYzIzLjg5MzMzMyAwIDUxLjItMTMuNjUzMzMzIDc4LjUwNjY2Ny00MC45Nmw0Ny43ODY2NjYtNTEuMkMyOTQuNDU0NjEzIDI4Ni43MiAzMzUuNDE0NjEzIDI2OS42NTMzMzMgMzc2LjM3NDYxMyAyNzMuMDY2NjY3bDE5NC41NiAxMy42NTMzMzNjMjMuODkzMzMzIDMuNDEzMzMzIDQ3Ljc4NjY2NyAxMC4yNCA3MS42OCAyMy44OTMzMzNsMTQzLjM2IDg4Ljc0NjY2N2MxMC4yNCA2LjgyNjY2NyAyMC40OCAxMC4yNCAzMC43MiAxMC4yNGwxMTYuMDUzMzM0IDEzLjY1MzMzM2M1MS4yIDYuODI2NjY3IDkyLjE2IDUxLjIgOTIuMTYgMTA1LjgxMzMzNHY0MC45NmMwIDQwLjk2LTIwLjQ4IDc1LjA5MzMzMy01OC4wMjY2NjcgOTIuMTZsLTU0LjYxMzMzMyAyMC40OGMtMTAuMjQgMy40MTMzMzMtMTcuMDY2NjY3LTMuNDEzMzMzLTIwLjQ4LTEwLjI0LTMuNDEzMzMzLTEwLjI0IDMuNDEzMzMzLTE3LjA2NjY2NyAxMC4yNC0yMC40OGw1NC42MTMzMzMtMTcuMDY2NjY3YzIwLjQ4LTEwLjI0IDM0LjEzMzMzMy0zNC4xMzMzMzMgMzQuMTMzMzMzLTYxLjQ0di00MC45NmMwLTM3LjU0NjY2Ny0yNy4zMDY2NjctNjguMjY2NjY3LTYxLjQ0LTcxLjY4bC0xMTYuMDUzMzMzLTEzLjY1MzMzM2MtMTcuMDY2NjY3IDAtMzQuMTMzMzMzLTYuODI2NjY3LTQ3Ljc4NjY2Ny0xNy4wNjY2NjdMNjIyLjEzNDYxMyAzNDEuMzMzMzMzYy0xNy4wNjY2NjctMTAuMjQtMzQuMTMzMzMzLTE3LjA2NjY2Ny01NC42MTMzMzMtMjAuNDhMMzc2LjM3NDYxMyAzMDcuMmMtMzQuMTMzMzMzLTMuNDEzMzMzLTY0Ljg1MzMzMyAxMC4yNC04OC43NDY2NjYgMzQuMTMzMzMzTDIzOS44NDEyOCAzOTIuNTMzMzMzYy0zNC4xMzMzMzMgMzQuMTMzMzMzLTY4LjI2NjY2NyA1MS4yLTEwMi40IDUxLjJIMTAzLjMwNzk0N2MtMzcuNTQ2NjY3IDAtNjguMjY2NjY3IDMwLjcyLTY4LjI2NjY2NyA3MS42OHYxMTIuNjRjMCAxMy42NTMzMzMgMTAuMjQgMjcuMzA2NjY3IDI3LjMwNjY2NyAyNy4zMDY2NjdMMTAzLjMwNzk0NyA2NDguNTMzMzMzYzEwLjI0IDAgMTcuMDY2NjY3IDYuODI2NjY3IDE3LjA2NjY2NiAxNy4wNjY2NjdzLTYuODI2NjY3IDE3LjA2NjY2Ny0xNy4wNjY2NjYgMTcuMDY2NjY3bC00MC45NiAzLjQxMzMzM3pNMTIwLjM3NDYxMyAzNzUuNDY2NjY3aC02LjgyNjY2NmwtMTAyLjQtMzQuMTMzMzM0Yy02LjgyNjY2Ny0zLjQxMzMzMy0xMy42NTMzMzMtMTMuNjUzMzMzLTEwLjI0LTIzLjg5MzMzMyAzLjQxMzMzMy02LjgyNjY2NyAxMy42NTMzMzMtMTMuNjUzMzMzIDIzLjg5MzMzMy0xMC4yNGwxMDIuNCAzNC4xMzMzMzNjMTAuMjQgMy40MTMzMzMgMTMuNjUzMzMzIDEzLjY1MzMzMyAxMC4yNCAyMC40OC0zLjQxMzMzMyAxMC4yNC0xMC4yNCAxMy42NTMzMzMtMTcuMDY2NjY3IDEzLjY1MzMzNHoiLz48cGF0aCBmaWxsPSIjNTM1RTgwIiBkPSJNODYuMjQxMjggNDQzLjczMzMzM2MtNi44MjY2NjcgMC0xMy42NTMzMzMtMy40MTMzMzMtMTcuMDY2NjY3LTEwLjI0bC0zNC4xMzMzMzMtODUuMzMzMzMzYy0zLjQxMzMzMy0xMC4yNCAwLTE3LjA2NjY2NyAxMC4yNC0yMy44OTMzMzMgMTAuMjQtMy40MTMzMzMgMTcuMDY2NjY3IDAgMjAuNDggMTAuMjRsMzQuMTMzMzMzIDg1LjMzMzMzM2MzLjQxMzMzMyAxMC4yNCAwIDE3LjA2NjY2Ny0xMC4yNCAyMy44OTMzMzNoLTMuNDEzMzMzek04MjAuMTA3OTQ3IDc1MC45MzMzMzNjLTU4LjAyNjY2NyAwLTEwMi40LTQ3Ljc4NjY2Ny0xMDIuNC0xMDIuNCAwLTU4LjAyNjY2NyA0Ny43ODY2NjctMTAyLjQgMTAyLjQtMTAyLjRzMTAyLjQgNDcuNzg2NjY3IDEwMi40IDEwMi40LTQ0LjM3MzMzMyAxMDIuNC0xMDIuNCAxMDIuNHogbTAtMTcwLjY2NjY2NmMtMzcuNTQ2NjY3IDAtNjguMjY2NjY3IDMwLjcyLTY4LjI2NjY2NyA2OC4yNjY2NjZzMzAuNzIgNjguMjY2NjY3IDY4LjI2NjY2NyA2OC4yNjY2NjcgNjguMjY2NjY3LTMwLjcyIDY4LjI2NjY2Ni02OC4yNjY2NjctMzAuNzItNjguMjY2NjY3LTY4LjI2NjY2Ni02OC4yNjY2NjZ6TTIwNS43MDc5NDcgNzUwLjkzMzMzM2MtNTguMDI2NjY3IDAtMTAyLjQtNDQuMzczMzMzLTEwMi40LTEwMi40czQ0LjM3MzMzMy0xMDIuNCAxMDIuNC0xMDIuNCAxMDIuNCA0NC4zNzMzMzMgMTAyLjQgMTAyLjQtNDQuMzczMzMzIDEwMi40LTEwMi40IDEwMi40eiBtMC0xNzAuNjY2NjY2Yy0zNy41NDY2NjcgMC02OC4yNjY2NjcgMzAuNzItNjguMjY2NjY3IDY4LjI2NjY2NnMzMC43MiA2OC4yNjY2NjcgNjguMjY2NjY3IDY4LjI2NjY2NyA2OC4yNjY2NjctMzAuNzIgNjguMjY2NjY2LTY4LjI2NjY2Ny0zMC43Mi02OC4yNjY2NjctNjguMjY2NjY2LTY4LjI2NjY2NnoiLz48L3N2Zz4=;" parent="1" vertex="1">
          <mxGeometry x="227.12" y="388" width="55" height="55" as="geometry" />
        </mxCell>
        <mxCell id="jsef9Xo3sPEI110m0m4C-12" value="" style="shape=image;verticalLabelPosition=bottom;labelBackgroundColor=default;verticalAlign=top;aspect=fixed;imageAspect=0;image=data:image/svg+xml,PHN2ZyB4bWxuczp4bGluaz0iaHR0cDovL3d3dy53My5vcmcvMTk5OS94bGluayIgeG1sbnM9Imh0dHA6Ly93d3cudzMub3JnLzIwMDAvc3ZnIiBoZWlnaHQ9IjIwMCIgd2lkdGg9IjIwMCIgdmVyc2lvbj0iMS4xIiB2aWV3Qm94PSIwIDAgMTAyNCAxMDI0IiBjbGFzcz0iaWNvbiI+PHBhdGggZmlsbD0iIzUzNUU4MCIgZD0iTTczNC43NzQ2MTMgNjgyLjY2NjY2N2gtNDQzLjczMzMzM2MtMTAuMjQgMC0xNy4wNjY2NjctNi44MjY2NjctMTcuMDY2NjY3LTE3LjA2NjY2N3M2LjgyNjY2Ny0xNy4wNjY2NjcgMTcuMDY2NjY3LTE3LjA2NjY2N2g0NDMuNzMzMzMzYzEwLjI0IDAgMTcuMDY2NjY3IDYuODI2NjY3IDE3LjA2NjY2NyAxNy4wNjY2NjdzLTYuODI2NjY3IDE3LjA2NjY2Ny0xNy4wNjY2NjcgMTcuMDY2NjY3ek03MDAuNjQxMjggNDc3Ljg2NjY2N2gtMzQxLjMzMzMzM2MtNi44MjY2NjcgMC0xMC4yNC0zLjQxMzMzMy0xMy42NTMzMzQtNi44MjY2NjctMy40MTMzMzMtMy40MTMzMzMtMy40MTMzMzMtMTAuMjQtMy40MTMzMzMtMTcuMDY2NjY3IDAtMy40MTMzMzMgMjcuMzA2NjY3LTg1LjMzMzMzMyA3NS4wOTMzMzMtMTEyLjY0IDYuODI2NjY3LTMuNDEzMzMzIDE3LjA2NjY2Ny0zLjQxMzMzMyAyMy44OTMzMzQgNi44MjY2NjcgMy40MTMzMzMgNi44MjY2NjcgMy40MTMzMzMgMTcuMDY2NjY3LTYuODI2NjY3IDIzLjg5MzMzMy0yMy44OTMzMzMgMTMuNjUzMzMzLTQwLjk2IDQ0LjM3MzMzMy01MS4yIDcxLjY4aDMxNy40NGMxMC4yNCAwIDE3LjA2NjY2NyA2LjgyNjY2NyAxNy4wNjY2NjcgMTcuMDY2NjY3cy02LjgyNjY2NyAxNy4wNjY2NjctMTcuMDY2NjY3IDE3LjA2NjY2N3pNNTY0LjEwNzk0NyA1NDYuMTMzMzMzaC0zNC4xMzMzMzRjLTEwLjI0IDAtMTcuMDY2NjY3LTYuODI2NjY3LTE3LjA2NjY2Ni0xNy4wNjY2NjZzNi44MjY2NjctMTcuMDY2NjY3IDE3LjA2NjY2Ni0xNy4wNjY2NjdoMzQuMTMzMzM0YzEwLjI0IDAgMTcuMDY2NjY3IDYuODI2NjY3IDE3LjA2NjY2NiAxNy4wNjY2NjdzLTYuODI2NjY3IDE3LjA2NjY2Ny0xNy4wNjY2NjYgMTcuMDY2NjY2eiIvPjxwYXRoIGZpbGw9IiM1MzVFODAiIGQ9Ik02Mi4zNDc5NDcgNjg2LjA4Yy0zNC4xMzMzMzMgMC02MS40NC0yNy4zMDY2NjctNjEuNDQtNjEuNDRWNTEyYzAtNTguMDI2NjY3IDQ3Ljc4NjY2Ny0xMDUuODEzMzMzIDEwMi40LTEwNS44MTMzMzNoMzQuMTMzMzMzYzIzLjg5MzMzMyAwIDUxLjItMTMuNjUzMzMzIDc4LjUwNjY2Ny00MC45Nmw0Ny43ODY2NjYtNTEuMkMyOTQuNDU0NjEzIDI4Ni43MiAzMzUuNDE0NjEzIDI2OS42NTMzMzMgMzc2LjM3NDYxMyAyNzMuMDY2NjY3bDE5NC41NiAxMy42NTMzMzNjMjMuODkzMzMzIDMuNDEzMzMzIDQ3Ljc4NjY2NyAxMC4yNCA3MS42OCAyMy44OTMzMzNsMTQzLjM2IDg4Ljc0NjY2N2MxMC4yNCA2LjgyNjY2NyAyMC40OCAxMC4yNCAzMC43MiAxMC4yNGwxMTYuMDUzMzM0IDEzLjY1MzMzM2M1MS4yIDYuODI2NjY3IDkyLjE2IDUxLjIgOTIuMTYgMTA1LjgxMzMzNHY0MC45NmMwIDQwLjk2LTIwLjQ4IDc1LjA5MzMzMy01OC4wMjY2NjcgOTIuMTZsLTU0LjYxMzMzMyAyMC40OGMtMTAuMjQgMy40MTMzMzMtMTcuMDY2NjY3LTMuNDEzMzMzLTIwLjQ4LTEwLjI0LTMuNDEzMzMzLTEwLjI0IDMuNDEzMzMzLTE3LjA2NjY2NyAxMC4yNC0yMC40OGw1NC42MTMzMzMtMTcuMDY2NjY3YzIwLjQ4LTEwLjI0IDM0LjEzMzMzMy0zNC4xMzMzMzMgMzQuMTMzMzMzLTYxLjQ0di00MC45NmMwLTM3LjU0NjY2Ny0yNy4zMDY2NjctNjguMjY2NjY3LTYxLjQ0LTcxLjY4bC0xMTYuMDUzMzMzLTEzLjY1MzMzM2MtMTcuMDY2NjY3IDAtMzQuMTMzMzMzLTYuODI2NjY3LTQ3Ljc4NjY2Ny0xNy4wNjY2NjdMNjIyLjEzNDYxMyAzNDEuMzMzMzMzYy0xNy4wNjY2NjctMTAuMjQtMzQuMTMzMzMzLTE3LjA2NjY2Ny01NC42MTMzMzMtMjAuNDhMMzc2LjM3NDYxMyAzMDcuMmMtMzQuMTMzMzMzLTMuNDEzMzMzLTY0Ljg1MzMzMyAxMC4yNC04OC43NDY2NjYgMzQuMTMzMzMzTDIzOS44NDEyOCAzOTIuNTMzMzMzYy0zNC4xMzMzMzMgMzQuMTMzMzMzLTY4LjI2NjY2NyA1MS4yLTEwMi40IDUxLjJIMTAzLjMwNzk0N2MtMzcuNTQ2NjY3IDAtNjguMjY2NjY3IDMwLjcyLTY4LjI2NjY2NyA3MS42OHYxMTIuNjRjMCAxMy42NTMzMzMgMTAuMjQgMjcuMzA2NjY3IDI3LjMwNjY2NyAyNy4zMDY2NjdMMTAzLjMwNzk0NyA2NDguNTMzMzMzYzEwLjI0IDAgMTcuMDY2NjY3IDYuODI2NjY3IDE3LjA2NjY2NiAxNy4wNjY2NjdzLTYuODI2NjY3IDE3LjA2NjY2Ny0xNy4wNjY2NjYgMTcuMDY2NjY3bC00MC45NiAzLjQxMzMzM3pNMTIwLjM3NDYxMyAzNzUuNDY2NjY3aC02LjgyNjY2NmwtMTAyLjQtMzQuMTMzMzM0Yy02LjgyNjY2Ny0zLjQxMzMzMy0xMy42NTMzMzMtMTMuNjUzMzMzLTEwLjI0LTIzLjg5MzMzMyAzLjQxMzMzMy02LjgyNjY2NyAxMy42NTMzMzMtMTMuNjUzMzMzIDIzLjg5MzMzMy0xMC4yNGwxMDIuNCAzNC4xMzMzMzNjMTAuMjQgMy40MTMzMzMgMTMuNjUzMzMzIDEzLjY1MzMzMyAxMC4yNCAyMC40OC0zLjQxMzMzMyAxMC4yNC0xMC4yNCAxMy42NTMzMzMtMTcuMDY2NjY3IDEzLjY1MzMzNHoiLz48cGF0aCBmaWxsPSIjNTM1RTgwIiBkPSJNODYuMjQxMjggNDQzLjczMzMzM2MtNi44MjY2NjcgMC0xMy42NTMzMzMtMy40MTMzMzMtMTcuMDY2NjY3LTEwLjI0bC0zNC4xMzMzMzMtODUuMzMzMzMzYy0zLjQxMzMzMy0xMC4yNCAwLTE3LjA2NjY2NyAxMC4yNC0yMy44OTMzMzMgMTAuMjQtMy40MTMzMzMgMTcuMDY2NjY3IDAgMjAuNDggMTAuMjRsMzQuMTMzMzMzIDg1LjMzMzMzM2MzLjQxMzMzMyAxMC4yNCAwIDE3LjA2NjY2Ny0xMC4yNCAyMy44OTMzMzNoLTMuNDEzMzMzek04MjAuMTA3OTQ3IDc1MC45MzMzMzNjLTU4LjAyNjY2NyAwLTEwMi40LTQ3Ljc4NjY2Ny0xMDIuNC0xMDIuNCAwLTU4LjAyNjY2NyA0Ny43ODY2NjctMTAyLjQgMTAyLjQtMTAyLjRzMTAyLjQgNDcuNzg2NjY3IDEwMi40IDEwMi40LTQ0LjM3MzMzMyAxMDIuNC0xMDIuNCAxMDIuNHogbTAtMTcwLjY2NjY2NmMtMzcuNTQ2NjY3IDAtNjguMjY2NjY3IDMwLjcyLTY4LjI2NjY2NyA2OC4yNjY2NjZzMzAuNzIgNjguMjY2NjY3IDY4LjI2NjY2NyA2OC4yNjY2NjcgNjguMjY2NjY3LTMwLjcyIDY4LjI2NjY2Ni02OC4yNjY2NjctMzAuNzItNjguMjY2NjY3LTY4LjI2NjY2Ni02OC4yNjY2NjZ6TTIwNS43MDc5NDcgNzUwLjkzMzMzM2MtNTguMDI2NjY3IDAtMTAyLjQtNDQuMzczMzMzLTEwMi40LTEwMi40czQ0LjM3MzMzMy0xMDIuNCAxMDIuNC0xMDIuNCAxMDIuNCA0NC4zNzMzMzMgMTAyLjQgMTAyLjQtNDQuMzczMzMzIDEwMi40LTEwMi40IDEwMi40eiBtMC0xNzAuNjY2NjY2Yy0zNy41NDY2NjcgMC02OC4yNjY2NjcgMzAuNzItNjguMjY2NjY3IDY4LjI2NjY2NnMzMC43MiA2OC4yNjY2NjcgNjguMjY2NjY3IDY4LjI2NjY2NyA2OC4yNjY2NjctMzAuNzIgNjguMjY2NjY2LTY4LjI2NjY2Ny0zMC43Mi02OC4yNjY2NjctNjguMjY2NjY2LTY4LjI2NjY2NnoiLz48L3N2Zz4=;" parent="1" vertex="1">
          <mxGeometry x="227.12" y="420.5" width="55" height="55" as="geometry" />
        </mxCell>
        <mxCell id="jsef9Xo3sPEI110m0m4C-13" value="" style="shape=image;verticalLabelPosition=bottom;labelBackgroundColor=default;verticalAlign=top;aspect=fixed;imageAspect=0;image=data:image/svg+xml,PHN2ZyB4bWxuczp4bGluaz0iaHR0cDovL3d3dy53My5vcmcvMTk5OS94bGluayIgeG1sbnM9Imh0dHA6Ly93d3cudzMub3JnLzIwMDAvc3ZnIiBoZWlnaHQ9IjIwMCIgd2lkdGg9IjIwMCIgdmVyc2lvbj0iMS4xIiB2aWV3Qm94PSIwIDAgMTAyNCAxMDI0IiBjbGFzcz0iaWNvbiI+PHBhdGggZmlsbD0iIzUzNUU4MCIgZD0iTTczNC43NzQ2MTMgNjgyLjY2NjY2N2gtNDQzLjczMzMzM2MtMTAuMjQgMC0xNy4wNjY2NjctNi44MjY2NjctMTcuMDY2NjY3LTE3LjA2NjY2N3M2LjgyNjY2Ny0xNy4wNjY2NjcgMTcuMDY2NjY3LTE3LjA2NjY2N2g0NDMuNzMzMzMzYzEwLjI0IDAgMTcuMDY2NjY3IDYuODI2NjY3IDE3LjA2NjY2NyAxNy4wNjY2NjdzLTYuODI2NjY3IDE3LjA2NjY2Ny0xNy4wNjY2NjcgMTcuMDY2NjY3ek03MDAuNjQxMjggNDc3Ljg2NjY2N2gtMzQxLjMzMzMzM2MtNi44MjY2NjcgMC0xMC4yNC0zLjQxMzMzMy0xMy42NTMzMzQtNi44MjY2NjctMy40MTMzMzMtMy40MTMzMzMtMy40MTMzMzMtMTAuMjQtMy40MTMzMzMtMTcuMDY2NjY3IDAtMy40MTMzMzMgMjcuMzA2NjY3LTg1LjMzMzMzMyA3NS4wOTMzMzMtMTEyLjY0IDYuODI2NjY3LTMuNDEzMzMzIDE3LjA2NjY2Ny0zLjQxMzMzMyAyMy44OTMzMzQgNi44MjY2NjcgMy40MTMzMzMgNi44MjY2NjcgMy40MTMzMzMgMTcuMDY2NjY3LTYuODI2NjY3IDIzLjg5MzMzMy0yMy44OTMzMzMgMTMuNjUzMzMzLTQwLjk2IDQ0LjM3MzMzMy01MS4yIDcxLjY4aDMxNy40NGMxMC4yNCAwIDE3LjA2NjY2NyA2LjgyNjY2NyAxNy4wNjY2NjcgMTcuMDY2NjY3cy02LjgyNjY2NyAxNy4wNjY2NjctMTcuMDY2NjY3IDE3LjA2NjY2N3pNNTY0LjEwNzk0NyA1NDYuMTMzMzMzaC0zNC4xMzMzMzRjLTEwLjI0IDAtMTcuMDY2NjY3LTYuODI2NjY3LTE3LjA2NjY2Ni0xNy4wNjY2NjZzNi44MjY2NjctMTcuMDY2NjY3IDE3LjA2NjY2Ni0xNy4wNjY2NjdoMzQuMTMzMzM0YzEwLjI0IDAgMTcuMDY2NjY3IDYuODI2NjY3IDE3LjA2NjY2NiAxNy4wNjY2NjdzLTYuODI2NjY3IDE3LjA2NjY2Ny0xNy4wNjY2NjYgMTcuMDY2NjY2eiIvPjxwYXRoIGZpbGw9IiM1MzVFODAiIGQ9Ik02Mi4zNDc5NDcgNjg2LjA4Yy0zNC4xMzMzMzMgMC02MS40NC0yNy4zMDY2NjctNjEuNDQtNjEuNDRWNTEyYzAtNTguMDI2NjY3IDQ3Ljc4NjY2Ny0xMDUuODEzMzMzIDEwMi40LTEwNS44MTMzMzNoMzQuMTMzMzMzYzIzLjg5MzMzMyAwIDUxLjItMTMuNjUzMzMzIDc4LjUwNjY2Ny00MC45Nmw0Ny43ODY2NjYtNTEuMkMyOTQuNDU0NjEzIDI4Ni43MiAzMzUuNDE0NjEzIDI2OS42NTMzMzMgMzc2LjM3NDYxMyAyNzMuMDY2NjY3bDE5NC41NiAxMy42NTMzMzNjMjMuODkzMzMzIDMuNDEzMzMzIDQ3Ljc4NjY2NyAxMC4yNCA3MS42OCAyMy44OTMzMzNsMTQzLjM2IDg4Ljc0NjY2N2MxMC4yNCA2LjgyNjY2NyAyMC40OCAxMC4yNCAzMC43MiAxMC4yNGwxMTYuMDUzMzM0IDEzLjY1MzMzM2M1MS4yIDYuODI2NjY3IDkyLjE2IDUxLjIgOTIuMTYgMTA1LjgxMzMzNHY0MC45NmMwIDQwLjk2LTIwLjQ4IDc1LjA5MzMzMy01OC4wMjY2NjcgOTIuMTZsLTU0LjYxMzMzMyAyMC40OGMtMTAuMjQgMy40MTMzMzMtMTcuMDY2NjY3LTMuNDEzMzMzLTIwLjQ4LTEwLjI0LTMuNDEzMzMzLTEwLjI0IDMuNDEzMzMzLTE3LjA2NjY2NyAxMC4yNC0yMC40OGw1NC42MTMzMzMtMTcuMDY2NjY3YzIwLjQ4LTEwLjI0IDM0LjEzMzMzMy0zNC4xMzMzMzMgMzQuMTMzMzMzLTYxLjQ0di00MC45NmMwLTM3LjU0NjY2Ny0yNy4zMDY2NjctNjguMjY2NjY3LTYxLjQ0LTcxLjY4bC0xMTYuMDUzMzMzLTEzLjY1MzMzM2MtMTcuMDY2NjY3IDAtMzQuMTMzMzMzLTYuODI2NjY3LTQ3Ljc4NjY2Ny0xNy4wNjY2NjdMNjIyLjEzNDYxMyAzNDEuMzMzMzMzYy0xNy4wNjY2NjctMTAuMjQtMzQuMTMzMzMzLTE3LjA2NjY2Ny01NC42MTMzMzMtMjAuNDhMMzc2LjM3NDYxMyAzMDcuMmMtMzQuMTMzMzMzLTMuNDEzMzMzLTY0Ljg1MzMzMyAxMC4yNC04OC43NDY2NjYgMzQuMTMzMzMzTDIzOS44NDEyOCAzOTIuNTMzMzMzYy0zNC4xMzMzMzMgMzQuMTMzMzMzLTY4LjI2NjY2NyA1MS4yLTEwMi40IDUxLjJIMTAzLjMwNzk0N2MtMzcuNTQ2NjY3IDAtNjguMjY2NjY3IDMwLjcyLTY4LjI2NjY2NyA3MS42OHYxMTIuNjRjMCAxMy42NTMzMzMgMTAuMjQgMjcuMzA2NjY3IDI3LjMwNjY2NyAyNy4zMDY2NjdMMTAzLjMwNzk0NyA2NDguNTMzMzMzYzEwLjI0IDAgMTcuMDY2NjY3IDYuODI2NjY3IDE3LjA2NjY2NiAxNy4wNjY2NjdzLTYuODI2NjY3IDE3LjA2NjY2Ny0xNy4wNjY2NjYgMTcuMDY2NjY3bC00MC45NiAzLjQxMzMzM3pNMTIwLjM3NDYxMyAzNzUuNDY2NjY3aC02LjgyNjY2NmwtMTAyLjQtMzQuMTMzMzM0Yy02LjgyNjY2Ny0zLjQxMzMzMy0xMy42NTMzMzMtMTMuNjUzMzMzLTEwLjI0LTIzLjg5MzMzMyAzLjQxMzMzMy02LjgyNjY2NyAxMy42NTMzMzMtMTMuNjUzMzMzIDIzLjg5MzMzMy0xMC4yNGwxMDIuNCAzNC4xMzMzMzNjMTAuMjQgMy40MTMzMzMgMTMuNjUzMzMzIDEzLjY1MzMzMyAxMC4yNCAyMC40OC0zLjQxMzMzMyAxMC4yNC0xMC4yNCAxMy42NTMzMzMtMTcuMDY2NjY3IDEzLjY1MzMzNHoiLz48cGF0aCBmaWxsPSIjNTM1RTgwIiBkPSJNODYuMjQxMjggNDQzLjczMzMzM2MtNi44MjY2NjcgMC0xMy42NTMzMzMtMy40MTMzMzMtMTcuMDY2NjY3LTEwLjI0bC0zNC4xMzMzMzMtODUuMzMzMzMzYy0zLjQxMzMzMy0xMC4yNCAwLTE3LjA2NjY2NyAxMC4yNC0yMy44OTMzMzMgMTAuMjQtMy40MTMzMzMgMTcuMDY2NjY3IDAgMjAuNDggMTAuMjRsMzQuMTMzMzMzIDg1LjMzMzMzM2MzLjQxMzMzMyAxMC4yNCAwIDE3LjA2NjY2Ny0xMC4yNCAyMy44OTMzMzNoLTMuNDEzMzMzek04MjAuMTA3OTQ3IDc1MC45MzMzMzNjLTU4LjAyNjY2NyAwLTEwMi40LTQ3Ljc4NjY2Ny0xMDIuNC0xMDIuNCAwLTU4LjAyNjY2NyA0Ny43ODY2NjctMTAyLjQgMTAyLjQtMTAyLjRzMTAyLjQgNDcuNzg2NjY3IDEwMi40IDEwMi40LTQ0LjM3MzMzMyAxMDIuNC0xMDIuNCAxMDIuNHogbTAtMTcwLjY2NjY2NmMtMzcuNTQ2NjY3IDAtNjguMjY2NjY3IDMwLjcyLTY4LjI2NjY2NyA2OC4yNjY2NjZzMzAuNzIgNjguMjY2NjY3IDY4LjI2NjY2NyA2OC4yNjY2NjcgNjguMjY2NjY3LTMwLjcyIDY4LjI2NjY2Ni02OC4yNjY2NjctMzAuNzItNjguMjY2NjY3LTY4LjI2NjY2Ni02OC4yNjY2NjZ6TTIwNS43MDc5NDcgNzUwLjkzMzMzM2MtNTguMDI2NjY3IDAtMTAyLjQtNDQuMzczMzMzLTEwMi40LTEwMi40czQ0LjM3MzMzMy0xMDIuNCAxMDIuNC0xMDIuNCAxMDIuNCA0NC4zNzMzMzMgMTAyLjQgMTAyLjQtNDQuMzczMzMzIDEwMi40LTEwMi40IDEwMi40eiBtMC0xNzAuNjY2NjY2Yy0zNy41NDY2NjcgMC02OC4yNjY2NjcgMzAuNzItNjguMjY2NjY3IDY4LjI2NjY2NnMzMC43MiA2OC4yNjY2NjcgNjguMjY2NjY3IDY4LjI2NjY2NyA2OC4yNjY2NjctMzAuNzIgNjguMjY2NjY2LTY4LjI2NjY2Ny0zMC43Mi02OC4yNjY2NjctNjguMjY2NjY2LTY4LjI2NjY2NnoiLz48L3N2Zz4=;" parent="1" vertex="1">
          <mxGeometry x="292.12" y="388" width="55" height="55" as="geometry" />
        </mxCell>
        <mxCell id="jsef9Xo3sPEI110m0m4C-14" value="" style="shape=image;verticalLabelPosition=bottom;labelBackgroundColor=default;verticalAlign=top;aspect=fixed;imageAspect=0;image=data:image/svg+xml,PHN2ZyB4bWxuczp4bGluaz0iaHR0cDovL3d3dy53My5vcmcvMTk5OS94bGluayIgeG1sbnM9Imh0dHA6Ly93d3cudzMub3JnLzIwMDAvc3ZnIiBoZWlnaHQ9IjIwMCIgd2lkdGg9IjIwMCIgdmVyc2lvbj0iMS4xIiB2aWV3Qm94PSIwIDAgMTAyNCAxMDI0IiBjbGFzcz0iaWNvbiI+PHBhdGggZmlsbD0iIzUzNUU4MCIgZD0iTTczNC43NzQ2MTMgNjgyLjY2NjY2N2gtNDQzLjczMzMzM2MtMTAuMjQgMC0xNy4wNjY2NjctNi44MjY2NjctMTcuMDY2NjY3LTE3LjA2NjY2N3M2LjgyNjY2Ny0xNy4wNjY2NjcgMTcuMDY2NjY3LTE3LjA2NjY2N2g0NDMuNzMzMzMzYzEwLjI0IDAgMTcuMDY2NjY3IDYuODI2NjY3IDE3LjA2NjY2NyAxNy4wNjY2NjdzLTYuODI2NjY3IDE3LjA2NjY2Ny0xNy4wNjY2NjcgMTcuMDY2NjY3ek03MDAuNjQxMjggNDc3Ljg2NjY2N2gtMzQxLjMzMzMzM2MtNi44MjY2NjcgMC0xMC4yNC0zLjQxMzMzMy0xMy42NTMzMzQtNi44MjY2NjctMy40MTMzMzMtMy40MTMzMzMtMy40MTMzMzMtMTAuMjQtMy40MTMzMzMtMTcuMDY2NjY3IDAtMy40MTMzMzMgMjcuMzA2NjY3LTg1LjMzMzMzMyA3NS4wOTMzMzMtMTEyLjY0IDYuODI2NjY3LTMuNDEzMzMzIDE3LjA2NjY2Ny0zLjQxMzMzMyAyMy44OTMzMzQgNi44MjY2NjcgMy40MTMzMzMgNi44MjY2NjcgMy40MTMzMzMgMTcuMDY2NjY3LTYuODI2NjY3IDIzLjg5MzMzMy0yMy44OTMzMzMgMTMuNjUzMzMzLTQwLjk2IDQ0LjM3MzMzMy01MS4yIDcxLjY4aDMxNy40NGMxMC4yNCAwIDE3LjA2NjY2NyA2LjgyNjY2NyAxNy4wNjY2NjcgMTcuMDY2NjY3cy02LjgyNjY2NyAxNy4wNjY2NjctMTcuMDY2NjY3IDE3LjA2NjY2N3pNNTY0LjEwNzk0NyA1NDYuMTMzMzMzaC0zNC4xMzMzMzRjLTEwLjI0IDAtMTcuMDY2NjY3LTYuODI2NjY3LTE3LjA2NjY2Ni0xNy4wNjY2NjZzNi44MjY2NjctMTcuMDY2NjY3IDE3LjA2NjY2Ni0xNy4wNjY2NjdoMzQuMTMzMzM0YzEwLjI0IDAgMTcuMDY2NjY3IDYuODI2NjY3IDE3LjA2NjY2NiAxNy4wNjY2NjdzLTYuODI2NjY3IDE3LjA2NjY2Ny0xNy4wNjY2NjYgMTcuMDY2NjY2eiIvPjxwYXRoIGZpbGw9IiM1MzVFODAiIGQ9Ik02Mi4zNDc5NDcgNjg2LjA4Yy0zNC4xMzMzMzMgMC02MS40NC0yNy4zMDY2NjctNjEuNDQtNjEuNDRWNTEyYzAtNTguMDI2NjY3IDQ3Ljc4NjY2Ny0xMDUuODEzMzMzIDEwMi40LTEwNS44MTMzMzNoMzQuMTMzMzMzYzIzLjg5MzMzMyAwIDUxLjItMTMuNjUzMzMzIDc4LjUwNjY2Ny00MC45Nmw0Ny43ODY2NjYtNTEuMkMyOTQuNDU0NjEzIDI4Ni43MiAzMzUuNDE0NjEzIDI2OS42NTMzMzMgMzc2LjM3NDYxMyAyNzMuMDY2NjY3bDE5NC41NiAxMy42NTMzMzNjMjMuODkzMzMzIDMuNDEzMzMzIDQ3Ljc4NjY2NyAxMC4yNCA3MS42OCAyMy44OTMzMzNsMTQzLjM2IDg4Ljc0NjY2N2MxMC4yNCA2LjgyNjY2NyAyMC40OCAxMC4yNCAzMC43MiAxMC4yNGwxMTYuMDUzMzM0IDEzLjY1MzMzM2M1MS4yIDYuODI2NjY3IDkyLjE2IDUxLjIgOTIuMTYgMTA1LjgxMzMzNHY0MC45NmMwIDQwLjk2LTIwLjQ4IDc1LjA5MzMzMy01OC4wMjY2NjcgOTIuMTZsLTU0LjYxMzMzMyAyMC40OGMtMTAuMjQgMy40MTMzMzMtMTcuMDY2NjY3LTMuNDEzMzMzLTIwLjQ4LTEwLjI0LTMuNDEzMzMzLTEwLjI0IDMuNDEzMzMzLTE3LjA2NjY2NyAxMC4yNC0yMC40OGw1NC42MTMzMzMtMTcuMDY2NjY3YzIwLjQ4LTEwLjI0IDM0LjEzMzMzMy0zNC4xMzMzMzMgMzQuMTMzMzMzLTYxLjQ0di00MC45NmMwLTM3LjU0NjY2Ny0yNy4zMDY2NjctNjguMjY2NjY3LTYxLjQ0LTcxLjY4bC0xMTYuMDUzMzMzLTEzLjY1MzMzM2MtMTcuMDY2NjY3IDAtMzQuMTMzMzMzLTYuODI2NjY3LTQ3Ljc4NjY2Ny0xNy4wNjY2NjdMNjIyLjEzNDYxMyAzNDEuMzMzMzMzYy0xNy4wNjY2NjctMTAuMjQtMzQuMTMzMzMzLTE3LjA2NjY2Ny01NC42MTMzMzMtMjAuNDhMMzc2LjM3NDYxMyAzMDcuMmMtMzQuMTMzMzMzLTMuNDEzMzMzLTY0Ljg1MzMzMyAxMC4yNC04OC43NDY2NjYgMzQuMTMzMzMzTDIzOS44NDEyOCAzOTIuNTMzMzMzYy0zNC4xMzMzMzMgMzQuMTMzMzMzLTY4LjI2NjY2NyA1MS4yLTEwMi40IDUxLjJIMTAzLjMwNzk0N2MtMzcuNTQ2NjY3IDAtNjguMjY2NjY3IDMwLjcyLTY4LjI2NjY2NyA3MS42OHYxMTIuNjRjMCAxMy42NTMzMzMgMTAuMjQgMjcuMzA2NjY3IDI3LjMwNjY2NyAyNy4zMDY2NjdMMTAzLjMwNzk0NyA2NDguNTMzMzMzYzEwLjI0IDAgMTcuMDY2NjY3IDYuODI2NjY3IDE3LjA2NjY2NiAxNy4wNjY2NjdzLTYuODI2NjY3IDE3LjA2NjY2Ny0xNy4wNjY2NjYgMTcuMDY2NjY3bC00MC45NiAzLjQxMzMzM3pNMTIwLjM3NDYxMyAzNzUuNDY2NjY3aC02LjgyNjY2NmwtMTAyLjQtMzQuMTMzMzM0Yy02LjgyNjY2Ny0zLjQxMzMzMy0xMy42NTMzMzMtMTMuNjUzMzMzLTEwLjI0LTIzLjg5MzMzMyAzLjQxMzMzMy02LjgyNjY2NyAxMy42NTMzMzMtMTMuNjUzMzMzIDIzLjg5MzMzMy0xMC4yNGwxMDIuNCAzNC4xMzMzMzNjMTAuMjQgMy40MTMzMzMgMTMuNjUzMzMzIDEzLjY1MzMzMyAxMC4yNCAyMC40OC0zLjQxMzMzMyAxMC4yNC0xMC4yNCAxMy42NTMzMzMtMTcuMDY2NjY3IDEzLjY1MzMzNHoiLz48cGF0aCBmaWxsPSIjNTM1RTgwIiBkPSJNODYuMjQxMjggNDQzLjczMzMzM2MtNi44MjY2NjcgMC0xMy42NTMzMzMtMy40MTMzMzMtMTcuMDY2NjY3LTEwLjI0bC0zNC4xMzMzMzMtODUuMzMzMzMzYy0zLjQxMzMzMy0xMC4yNCAwLTE3LjA2NjY2NyAxMC4yNC0yMy44OTMzMzMgMTAuMjQtMy40MTMzMzMgMTcuMDY2NjY3IDAgMjAuNDggMTAuMjRsMzQuMTMzMzMzIDg1LjMzMzMzM2MzLjQxMzMzMyAxMC4yNCAwIDE3LjA2NjY2Ny0xMC4yNCAyMy44OTMzMzNoLTMuNDEzMzMzek04MjAuMTA3OTQ3IDc1MC45MzMzMzNjLTU4LjAyNjY2NyAwLTEwMi40LTQ3Ljc4NjY2Ny0xMDIuNC0xMDIuNCAwLTU4LjAyNjY2NyA0Ny43ODY2NjctMTAyLjQgMTAyLjQtMTAyLjRzMTAyLjQgNDcuNzg2NjY3IDEwMi40IDEwMi40LTQ0LjM3MzMzMyAxMDIuNC0xMDIuNCAxMDIuNHogbTAtMTcwLjY2NjY2NmMtMzcuNTQ2NjY3IDAtNjguMjY2NjY3IDMwLjcyLTY4LjI2NjY2NyA2OC4yNjY2NjZzMzAuNzIgNjguMjY2NjY3IDY4LjI2NjY2NyA2OC4yNjY2NjcgNjguMjY2NjY3LTMwLjcyIDY4LjI2NjY2Ni02OC4yNjY2NjctMzAuNzItNjguMjY2NjY3LTY4LjI2NjY2Ni02OC4yNjY2NjZ6TTIwNS43MDc5NDcgNzUwLjkzMzMzM2MtNTguMDI2NjY3IDAtMTAyLjQtNDQuMzczMzMzLTEwMi40LTEwMi40czQ0LjM3MzMzMy0xMDIuNCAxMDIuNC0xMDIuNCAxMDIuNCA0NC4zNzMzMzMgMTAyLjQgMTAyLjQtNDQuMzczMzMzIDEwMi40LTEwMi40IDEwMi40eiBtMC0xNzAuNjY2NjY2Yy0zNy41NDY2NjcgMC02OC4yNjY2NjcgMzAuNzItNjguMjY2NjY3IDY4LjI2NjY2NnMzMC43MiA2OC4yNjY2NjcgNjguMjY2NjY3IDY4LjI2NjY2NyA2OC4yNjY2NjctMzAuNzIgNjguMjY2NjY2LTY4LjI2NjY2Ny0zMC43Mi02OC4yNjY2NjctNjguMjY2NjY2LTY4LjI2NjY2NnoiLz48L3N2Zz4=;" parent="1" vertex="1">
          <mxGeometry x="292.12" y="420.5" width="55" height="55" as="geometry" />
        </mxCell>
        <mxCell id="jsef9Xo3sPEI110m0m4C-15" value="" style="shape=image;verticalLabelPosition=bottom;labelBackgroundColor=default;verticalAlign=top;aspect=fixed;imageAspect=0;image=data:image/svg+xml,PHN2ZyB4bWxuczp4bGluaz0iaHR0cDovL3d3dy53My5vcmcvMTk5OS94bGluayIgeG1sbnM9Imh0dHA6Ly93d3cudzMub3JnLzIwMDAvc3ZnIiBoZWlnaHQ9IjIwMCIgd2lkdGg9IjIwMCIgdmVyc2lvbj0iMS4xIiB2aWV3Qm94PSIwIDAgMTAyNCAxMDI0IiBjbGFzcz0iaWNvbiI+PHBhdGggZmlsbD0iIzUzNUU4MCIgZD0iTTczNC43NzQ2MTMgNjgyLjY2NjY2N2gtNDQzLjczMzMzM2MtMTAuMjQgMC0xNy4wNjY2NjctNi44MjY2NjctMTcuMDY2NjY3LTE3LjA2NjY2N3M2LjgyNjY2Ny0xNy4wNjY2NjcgMTcuMDY2NjY3LTE3LjA2NjY2N2g0NDMuNzMzMzMzYzEwLjI0IDAgMTcuMDY2NjY3IDYuODI2NjY3IDE3LjA2NjY2NyAxNy4wNjY2NjdzLTYuODI2NjY3IDE3LjA2NjY2Ny0xNy4wNjY2NjcgMTcuMDY2NjY3ek03MDAuNjQxMjggNDc3Ljg2NjY2N2gtMzQxLjMzMzMzM2MtNi44MjY2NjcgMC0xMC4yNC0zLjQxMzMzMy0xMy42NTMzMzQtNi44MjY2NjctMy40MTMzMzMtMy40MTMzMzMtMy40MTMzMzMtMTAuMjQtMy40MTMzMzMtMTcuMDY2NjY3IDAtMy40MTMzMzMgMjcuMzA2NjY3LTg1LjMzMzMzMyA3NS4wOTMzMzMtMTEyLjY0IDYuODI2NjY3LTMuNDEzMzMzIDE3LjA2NjY2Ny0zLjQxMzMzMyAyMy44OTMzMzQgNi44MjY2NjcgMy40MTMzMzMgNi44MjY2NjcgMy40MTMzMzMgMTcuMDY2NjY3LTYuODI2NjY3IDIzLjg5MzMzMy0yMy44OTMzMzMgMTMuNjUzMzMzLTQwLjk2IDQ0LjM3MzMzMy01MS4yIDcxLjY4aDMxNy40NGMxMC4yNCAwIDE3LjA2NjY2NyA2LjgyNjY2NyAxNy4wNjY2NjcgMTcuMDY2NjY3cy02LjgyNjY2NyAxNy4wNjY2NjctMTcuMDY2NjY3IDE3LjA2NjY2N3pNNTY0LjEwNzk0NyA1NDYuMTMzMzMzaC0zNC4xMzMzMzRjLTEwLjI0IDAtMTcuMDY2NjY3LTYuODI2NjY3LTE3LjA2NjY2Ni0xNy4wNjY2NjZzNi44MjY2NjctMTcuMDY2NjY3IDE3LjA2NjY2Ni0xNy4wNjY2NjdoMzQuMTMzMzM0YzEwLjI0IDAgMTcuMDY2NjY3IDYuODI2NjY3IDE3LjA2NjY2NiAxNy4wNjY2NjdzLTYuODI2NjY3IDE3LjA2NjY2Ny0xNy4wNjY2NjYgMTcuMDY2NjY2eiIvPjxwYXRoIGZpbGw9IiM1MzVFODAiIGQ9Ik02Mi4zNDc5NDcgNjg2LjA4Yy0zNC4xMzMzMzMgMC02MS40NC0yNy4zMDY2NjctNjEuNDQtNjEuNDRWNTEyYzAtNTguMDI2NjY3IDQ3Ljc4NjY2Ny0xMDUuODEzMzMzIDEwMi40LTEwNS44MTMzMzNoMzQuMTMzMzMzYzIzLjg5MzMzMyAwIDUxLjItMTMuNjUzMzMzIDc4LjUwNjY2Ny00MC45Nmw0Ny43ODY2NjYtNTEuMkMyOTQuNDU0NjEzIDI4Ni43MiAzMzUuNDE0NjEzIDI2OS42NTMzMzMgMzc2LjM3NDYxMyAyNzMuMDY2NjY3bDE5NC41NiAxMy42NTMzMzNjMjMuODkzMzMzIDMuNDEzMzMzIDQ3Ljc4NjY2NyAxMC4yNCA3MS42OCAyMy44OTMzMzNsMTQzLjM2IDg4Ljc0NjY2N2MxMC4yNCA2LjgyNjY2NyAyMC40OCAxMC4yNCAzMC43MiAxMC4yNGwxMTYuMDUzMzM0IDEzLjY1MzMzM2M1MS4yIDYuODI2NjY3IDkyLjE2IDUxLjIgOTIuMTYgMTA1LjgxMzMzNHY0MC45NmMwIDQwLjk2LTIwLjQ4IDc1LjA5MzMzMy01OC4wMjY2NjcgOTIuMTZsLTU0LjYxMzMzMyAyMC40OGMtMTAuMjQgMy40MTMzMzMtMTcuMDY2NjY3LTMuNDEzMzMzLTIwLjQ4LTEwLjI0LTMuNDEzMzMzLTEwLjI0IDMuNDEzMzMzLTE3LjA2NjY2NyAxMC4yNC0yMC40OGw1NC42MTMzMzMtMTcuMDY2NjY3YzIwLjQ4LTEwLjI0IDM0LjEzMzMzMy0zNC4xMzMzMzMgMzQuMTMzMzMzLTYxLjQ0di00MC45NmMwLTM3LjU0NjY2Ny0yNy4zMDY2NjctNjguMjY2NjY3LTYxLjQ0LTcxLjY4bC0xMTYuMDUzMzMzLTEzLjY1MzMzM2MtMTcuMDY2NjY3IDAtMzQuMTMzMzMzLTYuODI2NjY3LTQ3Ljc4NjY2Ny0xNy4wNjY2NjdMNjIyLjEzNDYxMyAzNDEuMzMzMzMzYy0xNy4wNjY2NjctMTAuMjQtMzQuMTMzMzMzLTE3LjA2NjY2Ny01NC42MTMzMzMtMjAuNDhMMzc2LjM3NDYxMyAzMDcuMmMtMzQuMTMzMzMzLTMuNDEzMzMzLTY0Ljg1MzMzMyAxMC4yNC04OC43NDY2NjYgMzQuMTMzMzMzTDIzOS44NDEyOCAzOTIuNTMzMzMzYy0zNC4xMzMzMzMgMzQuMTMzMzMzLTY4LjI2NjY2NyA1MS4yLTEwMi40IDUxLjJIMTAzLjMwNzk0N2MtMzcuNTQ2NjY3IDAtNjguMjY2NjY3IDMwLjcyLTY4LjI2NjY2NyA3MS42OHYxMTIuNjRjMCAxMy42NTMzMzMgMTAuMjQgMjcuMzA2NjY3IDI3LjMwNjY2NyAyNy4zMDY2NjdMMTAzLjMwNzk0NyA2NDguNTMzMzMzYzEwLjI0IDAgMTcuMDY2NjY3IDYuODI2NjY3IDE3LjA2NjY2NiAxNy4wNjY2NjdzLTYuODI2NjY3IDE3LjA2NjY2Ny0xNy4wNjY2NjYgMTcuMDY2NjY3bC00MC45NiAzLjQxMzMzM3pNMTIwLjM3NDYxMyAzNzUuNDY2NjY3aC02LjgyNjY2NmwtMTAyLjQtMzQuMTMzMzM0Yy02LjgyNjY2Ny0zLjQxMzMzMy0xMy42NTMzMzMtMTMuNjUzMzMzLTEwLjI0LTIzLjg5MzMzMyAzLjQxMzMzMy02LjgyNjY2NyAxMy42NTMzMzMtMTMuNjUzMzMzIDIzLjg5MzMzMy0xMC4yNGwxMDIuNCAzNC4xMzMzMzNjMTAuMjQgMy40MTMzMzMgMTMuNjUzMzMzIDEzLjY1MzMzMyAxMC4yNCAyMC40OC0zLjQxMzMzMyAxMC4yNC0xMC4yNCAxMy42NTMzMzMtMTcuMDY2NjY3IDEzLjY1MzMzNHoiLz48cGF0aCBmaWxsPSIjNTM1RTgwIiBkPSJNODYuMjQxMjggNDQzLjczMzMzM2MtNi44MjY2NjcgMC0xMy42NTMzMzMtMy40MTMzMzMtMTcuMDY2NjY3LTEwLjI0bC0zNC4xMzMzMzMtODUuMzMzMzMzYy0zLjQxMzMzMy0xMC4yNCAwLTE3LjA2NjY2NyAxMC4yNC0yMy44OTMzMzMgMTAuMjQtMy40MTMzMzMgMTcuMDY2NjY3IDAgMjAuNDggMTAuMjRsMzQuMTMzMzMzIDg1LjMzMzMzM2MzLjQxMzMzMyAxMC4yNCAwIDE3LjA2NjY2Ny0xMC4yNCAyMy44OTMzMzNoLTMuNDEzMzMzek04MjAuMTA3OTQ3IDc1MC45MzMzMzNjLTU4LjAyNjY2NyAwLTEwMi40LTQ3Ljc4NjY2Ny0xMDIuNC0xMDIuNCAwLTU4LjAyNjY2NyA0Ny43ODY2NjctMTAyLjQgMTAyLjQtMTAyLjRzMTAyLjQgNDcuNzg2NjY3IDEwMi40IDEwMi40LTQ0LjM3MzMzMyAxMDIuNC0xMDIuNCAxMDIuNHogbTAtMTcwLjY2NjY2NmMtMzcuNTQ2NjY3IDAtNjguMjY2NjY3IDMwLjcyLTY4LjI2NjY2NyA2OC4yNjY2NjZzMzAuNzIgNjguMjY2NjY3IDY4LjI2NjY2NyA2OC4yNjY2NjcgNjguMjY2NjY3LTMwLjcyIDY4LjI2NjY2Ni02OC4yNjY2NjctMzAuNzItNjguMjY2NjY3LTY4LjI2NjY2Ni02OC4yNjY2NjZ6TTIwNS43MDc5NDcgNzUwLjkzMzMzM2MtNTguMDI2NjY3IDAtMTAyLjQtNDQuMzczMzMzLTEwMi40LTEwMi40czQ0LjM3MzMzMy0xMDIuNCAxMDIuNC0xMDIuNCAxMDIuNCA0NC4zNzMzMzMgMTAyLjQgMTAyLjQtNDQuMzczMzMzIDEwMi40LTEwMi40IDEwMi40eiBtMC0xNzAuNjY2NjY2Yy0zNy41NDY2NjcgMC02OC4yNjY2NjcgMzAuNzItNjguMjY2NjY3IDY4LjI2NjY2NnMzMC43MiA2OC4yNjY2NjcgNjguMjY2NjY3IDY4LjI2NjY2NyA2OC4yNjY2NjctMzAuNzIgNjguMjY2NjY2LTY4LjI2NjY2Ny0zMC43Mi02OC4yNjY2NjctNjguMjY2NjY2LTY4LjI2NjY2NnoiLz48L3N2Zz4=;" parent="1" vertex="1">
          <mxGeometry x="357.12" y="388" width="55" height="55" as="geometry" />
        </mxCell>
        <mxCell id="jsef9Xo3sPEI110m0m4C-16" value="" style="shape=image;verticalLabelPosition=bottom;labelBackgroundColor=default;verticalAlign=top;aspect=fixed;imageAspect=0;image=data:image/svg+xml,PHN2ZyB4bWxuczp4bGluaz0iaHR0cDovL3d3dy53My5vcmcvMTk5OS94bGluayIgeG1sbnM9Imh0dHA6Ly93d3cudzMub3JnLzIwMDAvc3ZnIiBoZWlnaHQ9IjIwMCIgd2lkdGg9IjIwMCIgdmVyc2lvbj0iMS4xIiB2aWV3Qm94PSIwIDAgMTAyNCAxMDI0IiBjbGFzcz0iaWNvbiI+PHBhdGggZmlsbD0iIzUzNUU4MCIgZD0iTTczNC43NzQ2MTMgNjgyLjY2NjY2N2gtNDQzLjczMzMzM2MtMTAuMjQgMC0xNy4wNjY2NjctNi44MjY2NjctMTcuMDY2NjY3LTE3LjA2NjY2N3M2LjgyNjY2Ny0xNy4wNjY2NjcgMTcuMDY2NjY3LTE3LjA2NjY2N2g0NDMuNzMzMzMzYzEwLjI0IDAgMTcuMDY2NjY3IDYuODI2NjY3IDE3LjA2NjY2NyAxNy4wNjY2NjdzLTYuODI2NjY3IDE3LjA2NjY2Ny0xNy4wNjY2NjcgMTcuMDY2NjY3ek03MDAuNjQxMjggNDc3Ljg2NjY2N2gtMzQxLjMzMzMzM2MtNi44MjY2NjcgMC0xMC4yNC0zLjQxMzMzMy0xMy42NTMzMzQtNi44MjY2NjctMy40MTMzMzMtMy40MTMzMzMtMy40MTMzMzMtMTAuMjQtMy40MTMzMzMtMTcuMDY2NjY3IDAtMy40MTMzMzMgMjcuMzA2NjY3LTg1LjMzMzMzMyA3NS4wOTMzMzMtMTEyLjY0IDYuODI2NjY3LTMuNDEzMzMzIDE3LjA2NjY2Ny0zLjQxMzMzMyAyMy44OTMzMzQgNi44MjY2NjcgMy40MTMzMzMgNi44MjY2NjcgMy40MTMzMzMgMTcuMDY2NjY3LTYuODI2NjY3IDIzLjg5MzMzMy0yMy44OTMzMzMgMTMuNjUzMzMzLTQwLjk2IDQ0LjM3MzMzMy01MS4yIDcxLjY4aDMxNy40NGMxMC4yNCAwIDE3LjA2NjY2NyA2LjgyNjY2NyAxNy4wNjY2NjcgMTcuMDY2NjY3cy02LjgyNjY2NyAxNy4wNjY2NjctMTcuMDY2NjY3IDE3LjA2NjY2N3pNNTY0LjEwNzk0NyA1NDYuMTMzMzMzaC0zNC4xMzMzMzRjLTEwLjI0IDAtMTcuMDY2NjY3LTYuODI2NjY3LTE3LjA2NjY2Ni0xNy4wNjY2NjZzNi44MjY2NjctMTcuMDY2NjY3IDE3LjA2NjY2Ni0xNy4wNjY2NjdoMzQuMTMzMzM0YzEwLjI0IDAgMTcuMDY2NjY3IDYuODI2NjY3IDE3LjA2NjY2NiAxNy4wNjY2NjdzLTYuODI2NjY3IDE3LjA2NjY2Ny0xNy4wNjY2NjYgMTcuMDY2NjY2eiIvPjxwYXRoIGZpbGw9IiM1MzVFODAiIGQ9Ik02Mi4zNDc5NDcgNjg2LjA4Yy0zNC4xMzMzMzMgMC02MS40NC0yNy4zMDY2NjctNjEuNDQtNjEuNDRWNTEyYzAtNTguMDI2NjY3IDQ3Ljc4NjY2Ny0xMDUuODEzMzMzIDEwMi40LTEwNS44MTMzMzNoMzQuMTMzMzMzYzIzLjg5MzMzMyAwIDUxLjItMTMuNjUzMzMzIDc4LjUwNjY2Ny00MC45Nmw0Ny43ODY2NjYtNTEuMkMyOTQuNDU0NjEzIDI4Ni43MiAzMzUuNDE0NjEzIDI2OS42NTMzMzMgMzc2LjM3NDYxMyAyNzMuMDY2NjY3bDE5NC41NiAxMy42NTMzMzNjMjMuODkzMzMzIDMuNDEzMzMzIDQ3Ljc4NjY2NyAxMC4yNCA3MS42OCAyMy44OTMzMzNsMTQzLjM2IDg4Ljc0NjY2N2MxMC4yNCA2LjgyNjY2NyAyMC40OCAxMC4yNCAzMC43MiAxMC4yNGwxMTYuMDUzMzM0IDEzLjY1MzMzM2M1MS4yIDYuODI2NjY3IDkyLjE2IDUxLjIgOTIuMTYgMTA1LjgxMzMzNHY0MC45NmMwIDQwLjk2LTIwLjQ4IDc1LjA5MzMzMy01OC4wMjY2NjcgOTIuMTZsLTU0LjYxMzMzMyAyMC40OGMtMTAuMjQgMy40MTMzMzMtMTcuMDY2NjY3LTMuNDEzMzMzLTIwLjQ4LTEwLjI0LTMuNDEzMzMzLTEwLjI0IDMuNDEzMzMzLTE3LjA2NjY2NyAxMC4yNC0yMC40OGw1NC42MTMzMzMtMTcuMDY2NjY3YzIwLjQ4LTEwLjI0IDM0LjEzMzMzMy0zNC4xMzMzMzMgMzQuMTMzMzMzLTYxLjQ0di00MC45NmMwLTM3LjU0NjY2Ny0yNy4zMDY2NjctNjguMjY2NjY3LTYxLjQ0LTcxLjY4bC0xMTYuMDUzMzMzLTEzLjY1MzMzM2MtMTcuMDY2NjY3IDAtMzQuMTMzMzMzLTYuODI2NjY3LTQ3Ljc4NjY2Ny0xNy4wNjY2NjdMNjIyLjEzNDYxMyAzNDEuMzMzMzMzYy0xNy4wNjY2NjctMTAuMjQtMzQuMTMzMzMzLTE3LjA2NjY2Ny01NC42MTMzMzMtMjAuNDhMMzc2LjM3NDYxMyAzMDcuMmMtMzQuMTMzMzMzLTMuNDEzMzMzLTY0Ljg1MzMzMyAxMC4yNC04OC43NDY2NjYgMzQuMTMzMzMzTDIzOS44NDEyOCAzOTIuNTMzMzMzYy0zNC4xMzMzMzMgMzQuMTMzMzMzLTY4LjI2NjY2NyA1MS4yLTEwMi40IDUxLjJIMTAzLjMwNzk0N2MtMzcuNTQ2NjY3IDAtNjguMjY2NjY3IDMwLjcyLTY4LjI2NjY2NyA3MS42OHYxMTIuNjRjMCAxMy42NTMzMzMgMTAuMjQgMjcuMzA2NjY3IDI3LjMwNjY2NyAyNy4zMDY2NjdMMTAzLjMwNzk0NyA2NDguNTMzMzMzYzEwLjI0IDAgMTcuMDY2NjY3IDYuODI2NjY3IDE3LjA2NjY2NiAxNy4wNjY2NjdzLTYuODI2NjY3IDE3LjA2NjY2Ny0xNy4wNjY2NjYgMTcuMDY2NjY3bC00MC45NiAzLjQxMzMzM3pNMTIwLjM3NDYxMyAzNzUuNDY2NjY3aC02LjgyNjY2NmwtMTAyLjQtMzQuMTMzMzM0Yy02LjgyNjY2Ny0zLjQxMzMzMy0xMy42NTMzMzMtMTMuNjUzMzMzLTEwLjI0LTIzLjg5MzMzMyAzLjQxMzMzMy02LjgyNjY2NyAxMy42NTMzMzMtMTMuNjUzMzMzIDIzLjg5MzMzMy0xMC4yNGwxMDIuNCAzNC4xMzMzMzNjMTAuMjQgMy40MTMzMzMgMTMuNjUzMzMzIDEzLjY1MzMzMyAxMC4yNCAyMC40OC0zLjQxMzMzMyAxMC4yNC0xMC4yNCAxMy42NTMzMzMtMTcuMDY2NjY3IDEzLjY1MzMzNHoiLz48cGF0aCBmaWxsPSIjNTM1RTgwIiBkPSJNODYuMjQxMjggNDQzLjczMzMzM2MtNi44MjY2NjcgMC0xMy42NTMzMzMtMy40MTMzMzMtMTcuMDY2NjY3LTEwLjI0bC0zNC4xMzMzMzMtODUuMzMzMzMzYy0zLjQxMzMzMy0xMC4yNCAwLTE3LjA2NjY2NyAxMC4yNC0yMy44OTMzMzMgMTAuMjQtMy40MTMzMzMgMTcuMDY2NjY3IDAgMjAuNDggMTAuMjRsMzQuMTMzMzMzIDg1LjMzMzMzM2MzLjQxMzMzMyAxMC4yNCAwIDE3LjA2NjY2Ny0xMC4yNCAyMy44OTMzMzNoLTMuNDEzMzMzek04MjAuMTA3OTQ3IDc1MC45MzMzMzNjLTU4LjAyNjY2NyAwLTEwMi40LTQ3Ljc4NjY2Ny0xMDIuNC0xMDIuNCAwLTU4LjAyNjY2NyA0Ny43ODY2NjctMTAyLjQgMTAyLjQtMTAyLjRzMTAyLjQgNDcuNzg2NjY3IDEwMi40IDEwMi40LTQ0LjM3MzMzMyAxMDIuNC0xMDIuNCAxMDIuNHogbTAtMTcwLjY2NjY2NmMtMzcuNTQ2NjY3IDAtNjguMjY2NjY3IDMwLjcyLTY4LjI2NjY2NyA2OC4yNjY2NjZzMzAuNzIgNjguMjY2NjY3IDY4LjI2NjY2NyA2OC4yNjY2NjcgNjguMjY2NjY3LTMwLjcyIDY4LjI2NjY2Ni02OC4yNjY2NjctMzAuNzItNjguMjY2NjY3LTY4LjI2NjY2Ni02OC4yNjY2NjZ6TTIwNS43MDc5NDcgNzUwLjkzMzMzM2MtNTguMDI2NjY3IDAtMTAyLjQtNDQuMzczMzMzLTEwMi40LTEwMi40czQ0LjM3MzMzMy0xMDIuNCAxMDIuNC0xMDIuNCAxMDIuNCA0NC4zNzMzMzMgMTAyLjQgMTAyLjQtNDQuMzczMzMzIDEwMi40LTEwMi40IDEwMi40eiBtMC0xNzAuNjY2NjY2Yy0zNy41NDY2NjcgMC02OC4yNjY2NjcgMzAuNzItNjguMjY2NjY3IDY4LjI2NjY2NnMzMC43MiA2OC4yNjY2NjcgNjguMjY2NjY3IDY4LjI2NjY2NyA2OC4yNjY2NjctMzAuNzIgNjguMjY2NjY2LTY4LjI2NjY2Ny0zMC43Mi02OC4yNjY2NjctNjguMjY2NjY2LTY4LjI2NjY2NnoiLz48L3N2Zz4=;" parent="1" vertex="1">
          <mxGeometry x="357.12" y="420.5" width="55" height="55" as="geometry" />
        </mxCell>
        <mxCell id="jsef9Xo3sPEI110m0m4C-17" value="" style="shape=image;verticalLabelPosition=bottom;labelBackgroundColor=default;verticalAlign=top;aspect=fixed;imageAspect=0;image=data:image/svg+xml,PHN2ZyB4bWxuczp4bGluaz0iaHR0cDovL3d3dy53My5vcmcvMTk5OS94bGluayIgeG1sbnM9Imh0dHA6Ly93d3cudzMub3JnLzIwMDAvc3ZnIiBoZWlnaHQ9IjIwMCIgd2lkdGg9IjIwMCIgdmVyc2lvbj0iMS4xIiB2aWV3Qm94PSIwIDAgMTAyNCAxMDI0IiBjbGFzcz0iaWNvbiI+PHBhdGggZmlsbD0iIzUzNUU4MCIgZD0iTTczNC43NzQ2MTMgNjgyLjY2NjY2N2gtNDQzLjczMzMzM2MtMTAuMjQgMC0xNy4wNjY2NjctNi44MjY2NjctMTcuMDY2NjY3LTE3LjA2NjY2N3M2LjgyNjY2Ny0xNy4wNjY2NjcgMTcuMDY2NjY3LTE3LjA2NjY2N2g0NDMuNzMzMzMzYzEwLjI0IDAgMTcuMDY2NjY3IDYuODI2NjY3IDE3LjA2NjY2NyAxNy4wNjY2NjdzLTYuODI2NjY3IDE3LjA2NjY2Ny0xNy4wNjY2NjcgMTcuMDY2NjY3ek03MDAuNjQxMjggNDc3Ljg2NjY2N2gtMzQxLjMzMzMzM2MtNi44MjY2NjcgMC0xMC4yNC0zLjQxMzMzMy0xMy42NTMzMzQtNi44MjY2NjctMy40MTMzMzMtMy40MTMzMzMtMy40MTMzMzMtMTAuMjQtMy40MTMzMzMtMTcuMDY2NjY3IDAtMy40MTMzMzMgMjcuMzA2NjY3LTg1LjMzMzMzMyA3NS4wOTMzMzMtMTEyLjY0IDYuODI2NjY3LTMuNDEzMzMzIDE3LjA2NjY2Ny0zLjQxMzMzMyAyMy44OTMzMzQgNi44MjY2NjcgMy40MTMzMzMgNi44MjY2NjcgMy40MTMzMzMgMTcuMDY2NjY3LTYuODI2NjY3IDIzLjg5MzMzMy0yMy44OTMzMzMgMTMuNjUzMzMzLTQwLjk2IDQ0LjM3MzMzMy01MS4yIDcxLjY4aDMxNy40NGMxMC4yNCAwIDE3LjA2NjY2NyA2LjgyNjY2NyAxNy4wNjY2NjcgMTcuMDY2NjY3cy02LjgyNjY2NyAxNy4wNjY2NjctMTcuMDY2NjY3IDE3LjA2NjY2N3pNNTY0LjEwNzk0NyA1NDYuMTMzMzMzaC0zNC4xMzMzMzRjLTEwLjI0IDAtMTcuMDY2NjY3LTYuODI2NjY3LTE3LjA2NjY2Ni0xNy4wNjY2NjZzNi44MjY2NjctMTcuMDY2NjY3IDE3LjA2NjY2Ni0xNy4wNjY2NjdoMzQuMTMzMzM0YzEwLjI0IDAgMTcuMDY2NjY3IDYuODI2NjY3IDE3LjA2NjY2NiAxNy4wNjY2NjdzLTYuODI2NjY3IDE3LjA2NjY2Ny0xNy4wNjY2NjYgMTcuMDY2NjY2eiIvPjxwYXRoIGZpbGw9IiM1MzVFODAiIGQ9Ik02Mi4zNDc5NDcgNjg2LjA4Yy0zNC4xMzMzMzMgMC02MS40NC0yNy4zMDY2NjctNjEuNDQtNjEuNDRWNTEyYzAtNTguMDI2NjY3IDQ3Ljc4NjY2Ny0xMDUuODEzMzMzIDEwMi40LTEwNS44MTMzMzNoMzQuMTMzMzMzYzIzLjg5MzMzMyAwIDUxLjItMTMuNjUzMzMzIDc4LjUwNjY2Ny00MC45Nmw0Ny43ODY2NjYtNTEuMkMyOTQuNDU0NjEzIDI4Ni43MiAzMzUuNDE0NjEzIDI2OS42NTMzMzMgMzc2LjM3NDYxMyAyNzMuMDY2NjY3bDE5NC41NiAxMy42NTMzMzNjMjMuODkzMzMzIDMuNDEzMzMzIDQ3Ljc4NjY2NyAxMC4yNCA3MS42OCAyMy44OTMzMzNsMTQzLjM2IDg4Ljc0NjY2N2MxMC4yNCA2LjgyNjY2NyAyMC40OCAxMC4yNCAzMC43MiAxMC4yNGwxMTYuMDUzMzM0IDEzLjY1MzMzM2M1MS4yIDYuODI2NjY3IDkyLjE2IDUxLjIgOTIuMTYgMTA1LjgxMzMzNHY0MC45NmMwIDQwLjk2LTIwLjQ4IDc1LjA5MzMzMy01OC4wMjY2NjcgOTIuMTZsLTU0LjYxMzMzMyAyMC40OGMtMTAuMjQgMy40MTMzMzMtMTcuMDY2NjY3LTMuNDEzMzMzLTIwLjQ4LTEwLjI0LTMuNDEzMzMzLTEwLjI0IDMuNDEzMzMzLTE3LjA2NjY2NyAxMC4yNC0yMC40OGw1NC42MTMzMzMtMTcuMDY2NjY3YzIwLjQ4LTEwLjI0IDM0LjEzMzMzMy0zNC4xMzMzMzMgMzQuMTMzMzMzLTYxLjQ0di00MC45NmMwLTM3LjU0NjY2Ny0yNy4zMDY2NjctNjguMjY2NjY3LTYxLjQ0LTcxLjY4bC0xMTYuMDUzMzMzLTEzLjY1MzMzM2MtMTcuMDY2NjY3IDAtMzQuMTMzMzMzLTYuODI2NjY3LTQ3Ljc4NjY2Ny0xNy4wNjY2NjdMNjIyLjEzNDYxMyAzNDEuMzMzMzMzYy0xNy4wNjY2NjctMTAuMjQtMzQuMTMzMzMzLTE3LjA2NjY2Ny01NC42MTMzMzMtMjAuNDhMMzc2LjM3NDYxMyAzMDcuMmMtMzQuMTMzMzMzLTMuNDEzMzMzLTY0Ljg1MzMzMyAxMC4yNC04OC43NDY2NjYgMzQuMTMzMzMzTDIzOS44NDEyOCAzOTIuNTMzMzMzYy0zNC4xMzMzMzMgMzQuMTMzMzMzLTY4LjI2NjY2NyA1MS4yLTEwMi40IDUxLjJIMTAzLjMwNzk0N2MtMzcuNTQ2NjY3IDAtNjguMjY2NjY3IDMwLjcyLTY4LjI2NjY2NyA3MS42OHYxMTIuNjRjMCAxMy42NTMzMzMgMTAuMjQgMjcuMzA2NjY3IDI3LjMwNjY2NyAyNy4zMDY2NjdMMTAzLjMwNzk0NyA2NDguNTMzMzMzYzEwLjI0IDAgMTcuMDY2NjY3IDYuODI2NjY3IDE3LjA2NjY2NiAxNy4wNjY2NjdzLTYuODI2NjY3IDE3LjA2NjY2Ny0xNy4wNjY2NjYgMTcuMDY2NjY3bC00MC45NiAzLjQxMzMzM3pNMTIwLjM3NDYxMyAzNzUuNDY2NjY3aC02LjgyNjY2NmwtMTAyLjQtMzQuMTMzMzM0Yy02LjgyNjY2Ny0zLjQxMzMzMy0xMy42NTMzMzMtMTMuNjUzMzMzLTEwLjI0LTIzLjg5MzMzMyAzLjQxMzMzMy02LjgyNjY2NyAxMy42NTMzMzMtMTMuNjUzMzMzIDIzLjg5MzMzMy0xMC4yNGwxMDIuNCAzNC4xMzMzMzNjMTAuMjQgMy40MTMzMzMgMTMuNjUzMzMzIDEzLjY1MzMzMyAxMC4yNCAyMC40OC0zLjQxMzMzMyAxMC4yNC0xMC4yNCAxMy42NTMzMzMtMTcuMDY2NjY3IDEzLjY1MzMzNHoiLz48cGF0aCBmaWxsPSIjNTM1RTgwIiBkPSJNODYuMjQxMjggNDQzLjczMzMzM2MtNi44MjY2NjcgMC0xMy42NTMzMzMtMy40MTMzMzMtMTcuMDY2NjY3LTEwLjI0bC0zNC4xMzMzMzMtODUuMzMzMzMzYy0zLjQxMzMzMy0xMC4yNCAwLTE3LjA2NjY2NyAxMC4yNC0yMy44OTMzMzMgMTAuMjQtMy40MTMzMzMgMTcuMDY2NjY3IDAgMjAuNDggMTAuMjRsMzQuMTMzMzMzIDg1LjMzMzMzM2MzLjQxMzMzMyAxMC4yNCAwIDE3LjA2NjY2Ny0xMC4yNCAyMy44OTMzMzNoLTMuNDEzMzMzek04MjAuMTA3OTQ3IDc1MC45MzMzMzNjLTU4LjAyNjY2NyAwLTEwMi40LTQ3Ljc4NjY2Ny0xMDIuNC0xMDIuNCAwLTU4LjAyNjY2NyA0Ny43ODY2NjctMTAyLjQgMTAyLjQtMTAyLjRzMTAyLjQgNDcuNzg2NjY3IDEwMi40IDEwMi40LTQ0LjM3MzMzMyAxMDIuNC0xMDIuNCAxMDIuNHogbTAtMTcwLjY2NjY2NmMtMzcuNTQ2NjY3IDAtNjguMjY2NjY3IDMwLjcyLTY4LjI2NjY2NyA2OC4yNjY2NjZzMzAuNzIgNjguMjY2NjY3IDY4LjI2NjY2NyA2OC4yNjY2NjcgNjguMjY2NjY3LTMwLjcyIDY4LjI2NjY2Ni02OC4yNjY2NjctMzAuNzItNjguMjY2NjY3LTY4LjI2NjY2Ni02OC4yNjY2NjZ6TTIwNS43MDc5NDcgNzUwLjkzMzMzM2MtNTguMDI2NjY3IDAtMTAyLjQtNDQuMzczMzMzLTEwMi40LTEwMi40czQ0LjM3MzMzMy0xMDIuNCAxMDIuNC0xMDIuNCAxMDIuNCA0NC4zNzMzMzMgMTAyLjQgMTAyLjQtNDQuMzczMzMzIDEwMi40LTEwMi40IDEwMi40eiBtMC0xNzAuNjY2NjY2Yy0zNy41NDY2NjcgMC02OC4yNjY2NjcgMzAuNzItNjguMjY2NjY3IDY4LjI2NjY2NnMzMC43MiA2OC4yNjY2NjcgNjguMjY2NjY3IDY4LjI2NjY2NyA2OC4yNjY2NjctMzAuNzIgNjguMjY2NjY2LTY4LjI2NjY2Ny0zMC43Mi02OC4yNjY2NjctNjguMjY2NjY2LTY4LjI2NjY2NnoiLz48L3N2Zz4=;" parent="1" vertex="1">
          <mxGeometry x="422.12" y="388" width="55" height="55" as="geometry" />
        </mxCell>
        <mxCell id="jsef9Xo3sPEI110m0m4C-18" value="" style="shape=image;verticalLabelPosition=bottom;labelBackgroundColor=default;verticalAlign=top;aspect=fixed;imageAspect=0;image=data:image/svg+xml,PHN2ZyB4bWxuczp4bGluaz0iaHR0cDovL3d3dy53My5vcmcvMTk5OS94bGluayIgeG1sbnM9Imh0dHA6Ly93d3cudzMub3JnLzIwMDAvc3ZnIiBoZWlnaHQ9IjIwMCIgd2lkdGg9IjIwMCIgdmVyc2lvbj0iMS4xIiB2aWV3Qm94PSIwIDAgMTAyNCAxMDI0IiBjbGFzcz0iaWNvbiI+PHBhdGggZmlsbD0iIzUzNUU4MCIgZD0iTTczNC43NzQ2MTMgNjgyLjY2NjY2N2gtNDQzLjczMzMzM2MtMTAuMjQgMC0xNy4wNjY2NjctNi44MjY2NjctMTcuMDY2NjY3LTE3LjA2NjY2N3M2LjgyNjY2Ny0xNy4wNjY2NjcgMTcuMDY2NjY3LTE3LjA2NjY2N2g0NDMuNzMzMzMzYzEwLjI0IDAgMTcuMDY2NjY3IDYuODI2NjY3IDE3LjA2NjY2NyAxNy4wNjY2NjdzLTYuODI2NjY3IDE3LjA2NjY2Ny0xNy4wNjY2NjcgMTcuMDY2NjY3ek03MDAuNjQxMjggNDc3Ljg2NjY2N2gtMzQxLjMzMzMzM2MtNi44MjY2NjcgMC0xMC4yNC0zLjQxMzMzMy0xMy42NTMzMzQtNi44MjY2NjctMy40MTMzMzMtMy40MTMzMzMtMy40MTMzMzMtMTAuMjQtMy40MTMzMzMtMTcuMDY2NjY3IDAtMy40MTMzMzMgMjcuMzA2NjY3LTg1LjMzMzMzMyA3NS4wOTMzMzMtMTEyLjY0IDYuODI2NjY3LTMuNDEzMzMzIDE3LjA2NjY2Ny0zLjQxMzMzMyAyMy44OTMzMzQgNi44MjY2NjcgMy40MTMzMzMgNi44MjY2NjcgMy40MTMzMzMgMTcuMDY2NjY3LTYuODI2NjY3IDIzLjg5MzMzMy0yMy44OTMzMzMgMTMuNjUzMzMzLTQwLjk2IDQ0LjM3MzMzMy01MS4yIDcxLjY4aDMxNy40NGMxMC4yNCAwIDE3LjA2NjY2NyA2LjgyNjY2NyAxNy4wNjY2NjcgMTcuMDY2NjY3cy02LjgyNjY2NyAxNy4wNjY2NjctMTcuMDY2NjY3IDE3LjA2NjY2N3pNNTY0LjEwNzk0NyA1NDYuMTMzMzMzaC0zNC4xMzMzMzRjLTEwLjI0IDAtMTcuMDY2NjY3LTYuODI2NjY3LTE3LjA2NjY2Ni0xNy4wNjY2NjZzNi44MjY2NjctMTcuMDY2NjY3IDE3LjA2NjY2Ni0xNy4wNjY2NjdoMzQuMTMzMzM0YzEwLjI0IDAgMTcuMDY2NjY3IDYuODI2NjY3IDE3LjA2NjY2NiAxNy4wNjY2NjdzLTYuODI2NjY3IDE3LjA2NjY2Ny0xNy4wNjY2NjYgMTcuMDY2NjY2eiIvPjxwYXRoIGZpbGw9IiM1MzVFODAiIGQ9Ik02Mi4zNDc5NDcgNjg2LjA4Yy0zNC4xMzMzMzMgMC02MS40NC0yNy4zMDY2NjctNjEuNDQtNjEuNDRWNTEyYzAtNTguMDI2NjY3IDQ3Ljc4NjY2Ny0xMDUuODEzMzMzIDEwMi40LTEwNS44MTMzMzNoMzQuMTMzMzMzYzIzLjg5MzMzMyAwIDUxLjItMTMuNjUzMzMzIDc4LjUwNjY2Ny00MC45Nmw0Ny43ODY2NjYtNTEuMkMyOTQuNDU0NjEzIDI4Ni43MiAzMzUuNDE0NjEzIDI2OS42NTMzMzMgMzc2LjM3NDYxMyAyNzMuMDY2NjY3bDE5NC41NiAxMy42NTMzMzNjMjMuODkzMzMzIDMuNDEzMzMzIDQ3Ljc4NjY2NyAxMC4yNCA3MS42OCAyMy44OTMzMzNsMTQzLjM2IDg4Ljc0NjY2N2MxMC4yNCA2LjgyNjY2NyAyMC40OCAxMC4yNCAzMC43MiAxMC4yNGwxMTYuMDUzMzM0IDEzLjY1MzMzM2M1MS4yIDYuODI2NjY3IDkyLjE2IDUxLjIgOTIuMTYgMTA1LjgxMzMzNHY0MC45NmMwIDQwLjk2LTIwLjQ4IDc1LjA5MzMzMy01OC4wMjY2NjcgOTIuMTZsLTU0LjYxMzMzMyAyMC40OGMtMTAuMjQgMy40MTMzMzMtMTcuMDY2NjY3LTMuNDEzMzMzLTIwLjQ4LTEwLjI0LTMuNDEzMzMzLTEwLjI0IDMuNDEzMzMzLTE3LjA2NjY2NyAxMC4yNC0yMC40OGw1NC42MTMzMzMtMTcuMDY2NjY3YzIwLjQ4LTEwLjI0IDM0LjEzMzMzMy0zNC4xMzMzMzMgMzQuMTMzMzMzLTYxLjQ0di00MC45NmMwLTM3LjU0NjY2Ny0yNy4zMDY2NjctNjguMjY2NjY3LTYxLjQ0LTcxLjY4bC0xMTYuMDUzMzMzLTEzLjY1MzMzM2MtMTcuMDY2NjY3IDAtMzQuMTMzMzMzLTYuODI2NjY3LTQ3Ljc4NjY2Ny0xNy4wNjY2NjdMNjIyLjEzNDYxMyAzNDEuMzMzMzMzYy0xNy4wNjY2NjctMTAuMjQtMzQuMTMzMzMzLTE3LjA2NjY2Ny01NC42MTMzMzMtMjAuNDhMMzc2LjM3NDYxMyAzMDcuMmMtMzQuMTMzMzMzLTMuNDEzMzMzLTY0Ljg1MzMzMyAxMC4yNC04OC43NDY2NjYgMzQuMTMzMzMzTDIzOS44NDEyOCAzOTIuNTMzMzMzYy0zNC4xMzMzMzMgMzQuMTMzMzMzLTY4LjI2NjY2NyA1MS4yLTEwMi40IDUxLjJIMTAzLjMwNzk0N2MtMzcuNTQ2NjY3IDAtNjguMjY2NjY3IDMwLjcyLTY4LjI2NjY2NyA3MS42OHYxMTIuNjRjMCAxMy42NTMzMzMgMTAuMjQgMjcuMzA2NjY3IDI3LjMwNjY2NyAyNy4zMDY2NjdMMTAzLjMwNzk0NyA2NDguNTMzMzMzYzEwLjI0IDAgMTcuMDY2NjY3IDYuODI2NjY3IDE3LjA2NjY2NiAxNy4wNjY2NjdzLTYuODI2NjY3IDE3LjA2NjY2Ny0xNy4wNjY2NjYgMTcuMDY2NjY3bC00MC45NiAzLjQxMzMzM3pNMTIwLjM3NDYxMyAzNzUuNDY2NjY3aC02LjgyNjY2NmwtMTAyLjQtMzQuMTMzMzM0Yy02LjgyNjY2Ny0zLjQxMzMzMy0xMy42NTMzMzMtMTMuNjUzMzMzLTEwLjI0LTIzLjg5MzMzMyAzLjQxMzMzMy02LjgyNjY2NyAxMy42NTMzMzMtMTMuNjUzMzMzIDIzLjg5MzMzMy0xMC4yNGwxMDIuNCAzNC4xMzMzMzNjMTAuMjQgMy40MTMzMzMgMTMuNjUzMzMzIDEzLjY1MzMzMyAxMC4yNCAyMC40OC0zLjQxMzMzMyAxMC4yNC0xMC4yNCAxMy42NTMzMzMtMTcuMDY2NjY3IDEzLjY1MzMzNHoiLz48cGF0aCBmaWxsPSIjNTM1RTgwIiBkPSJNODYuMjQxMjggNDQzLjczMzMzM2MtNi44MjY2NjcgMC0xMy42NTMzMzMtMy40MTMzMzMtMTcuMDY2NjY3LTEwLjI0bC0zNC4xMzMzMzMtODUuMzMzMzMzYy0zLjQxMzMzMy0xMC4yNCAwLTE3LjA2NjY2NyAxMC4yNC0yMy44OTMzMzMgMTAuMjQtMy40MTMzMzMgMTcuMDY2NjY3IDAgMjAuNDggMTAuMjRsMzQuMTMzMzMzIDg1LjMzMzMzM2MzLjQxMzMzMyAxMC4yNCAwIDE3LjA2NjY2Ny0xMC4yNCAyMy44OTMzMzNoLTMuNDEzMzMzek04MjAuMTA3OTQ3IDc1MC45MzMzMzNjLTU4LjAyNjY2NyAwLTEwMi40LTQ3Ljc4NjY2Ny0xMDIuNC0xMDIuNCAwLTU4LjAyNjY2NyA0Ny43ODY2NjctMTAyLjQgMTAyLjQtMTAyLjRzMTAyLjQgNDcuNzg2NjY3IDEwMi40IDEwMi40LTQ0LjM3MzMzMyAxMDIuNC0xMDIuNCAxMDIuNHogbTAtMTcwLjY2NjY2NmMtMzcuNTQ2NjY3IDAtNjguMjY2NjY3IDMwLjcyLTY4LjI2NjY2NyA2OC4yNjY2NjZzMzAuNzIgNjguMjY2NjY3IDY4LjI2NjY2NyA2OC4yNjY2NjcgNjguMjY2NjY3LTMwLjcyIDY4LjI2NjY2Ni02OC4yNjY2NjctMzAuNzItNjguMjY2NjY3LTY4LjI2NjY2Ni02OC4yNjY2NjZ6TTIwNS43MDc5NDcgNzUwLjkzMzMzM2MtNTguMDI2NjY3IDAtMTAyLjQtNDQuMzczMzMzLTEwMi40LTEwMi40czQ0LjM3MzMzMy0xMDIuNCAxMDIuNC0xMDIuNCAxMDIuNCA0NC4zNzMzMzMgMTAyLjQgMTAyLjQtNDQuMzczMzMzIDEwMi40LTEwMi40IDEwMi40eiBtMC0xNzAuNjY2NjY2Yy0zNy41NDY2NjcgMC02OC4yNjY2NjcgMzAuNzItNjguMjY2NjY3IDY4LjI2NjY2NnMzMC43MiA2OC4yNjY2NjcgNjguMjY2NjY3IDY4LjI2NjY2NyA2OC4yNjY2NjctMzAuNzIgNjguMjY2NjY2LTY4LjI2NjY2Ny0zMC43Mi02OC4yNjY2NjctNjguMjY2NjY2LTY4LjI2NjY2NnoiLz48L3N2Zz4=;" parent="1" vertex="1">
          <mxGeometry x="422.12" y="420.5" width="55" height="55" as="geometry" />
        </mxCell>
        <mxCell id="jsef9Xo3sPEI110m0m4C-19" value="" style="shape=image;verticalLabelPosition=bottom;labelBackgroundColor=default;verticalAlign=top;aspect=fixed;imageAspect=0;image=data:image/svg+xml,PHN2ZyB4bWxuczp4bGluaz0iaHR0cDovL3d3dy53My5vcmcvMTk5OS94bGluayIgeG1sbnM9Imh0dHA6Ly93d3cudzMub3JnLzIwMDAvc3ZnIiBoZWlnaHQ9IjIwMCIgd2lkdGg9IjIwMCIgdmVyc2lvbj0iMS4xIiB2aWV3Qm94PSIwIDAgMTAyNCAxMDI0IiBjbGFzcz0iaWNvbiI+PHBhdGggZmlsbD0iIzRBOTE5QiIgZD0iTTczNC43NzQ2MTMgNjgyLjY2NjY2N2gtNDQzLjczMzMzM2MtMTAuMjQgMC0xNy4wNjY2NjctNi44MjY2NjctMTcuMDY2NjY3LTE3LjA2NjY2N3M2LjgyNjY2Ny0xNy4wNjY2NjcgMTcuMDY2NjY3LTE3LjA2NjY2N2g0NDMuNzMzMzMzYzEwLjI0IDAgMTcuMDY2NjY3IDYuODI2NjY3IDE3LjA2NjY2NyAxNy4wNjY2NjdzLTYuODI2NjY3IDE3LjA2NjY2Ny0xNy4wNjY2NjcgMTcuMDY2NjY3ek03MDAuNjQxMjggNDc3Ljg2NjY2N2gtMzQxLjMzMzMzM2MtNi44MjY2NjcgMC0xMC4yNC0zLjQxMzMzMy0xMy42NTMzMzQtNi44MjY2NjctMy40MTMzMzMtMy40MTMzMzMtMy40MTMzMzMtMTAuMjQtMy40MTMzMzMtMTcuMDY2NjY3IDAtMy40MTMzMzMgMjcuMzA2NjY3LTg1LjMzMzMzMyA3NS4wOTMzMzMtMTEyLjY0IDYuODI2NjY3LTMuNDEzMzMzIDE3LjA2NjY2Ny0zLjQxMzMzMyAyMy44OTMzMzQgNi44MjY2NjcgMy40MTMzMzMgNi44MjY2NjcgMy40MTMzMzMgMTcuMDY2NjY3LTYuODI2NjY3IDIzLjg5MzMzMy0yMy44OTMzMzMgMTMuNjUzMzMzLTQwLjk2IDQ0LjM3MzMzMy01MS4yIDcxLjY4aDMxNy40NGMxMC4yNCAwIDE3LjA2NjY2NyA2LjgyNjY2NyAxNy4wNjY2NjcgMTcuMDY2NjY3cy02LjgyNjY2NyAxNy4wNjY2NjctMTcuMDY2NjY3IDE3LjA2NjY2N3pNNTY0LjEwNzk0NyA1NDYuMTMzMzMzaC0zNC4xMzMzMzRjLTEwLjI0IDAtMTcuMDY2NjY3LTYuODI2NjY3LTE3LjA2NjY2Ni0xNy4wNjY2NjZzNi44MjY2NjctMTcuMDY2NjY3IDE3LjA2NjY2Ni0xNy4wNjY2NjdoMzQuMTMzMzM0YzEwLjI0IDAgMTcuMDY2NjY3IDYuODI2NjY3IDE3LjA2NjY2NiAxNy4wNjY2NjdzLTYuODI2NjY3IDE3LjA2NjY2Ny0xNy4wNjY2NjYgMTcuMDY2NjY2eiIvPjxwYXRoIGZpbGw9IiM0QTkxOUIiIGQ9Ik02Mi4zNDc5NDcgNjg2LjA4Yy0zNC4xMzMzMzMgMC02MS40NC0yNy4zMDY2NjctNjEuNDQtNjEuNDRWNTEyYzAtNTguMDI2NjY3IDQ3Ljc4NjY2Ny0xMDUuODEzMzMzIDEwMi40LTEwNS44MTMzMzNoMzQuMTMzMzMzYzIzLjg5MzMzMyAwIDUxLjItMTMuNjUzMzMzIDc4LjUwNjY2Ny00MC45Nmw0Ny43ODY2NjYtNTEuMkMyOTQuNDU0NjEzIDI4Ni43MiAzMzUuNDE0NjEzIDI2OS42NTMzMzMgMzc2LjM3NDYxMyAyNzMuMDY2NjY3bDE5NC41NiAxMy42NTMzMzNjMjMuODkzMzMzIDMuNDEzMzMzIDQ3Ljc4NjY2NyAxMC4yNCA3MS42OCAyMy44OTMzMzNsMTQzLjM2IDg4Ljc0NjY2N2MxMC4yNCA2LjgyNjY2NyAyMC40OCAxMC4yNCAzMC43MiAxMC4yNGwxMTYuMDUzMzM0IDEzLjY1MzMzM2M1MS4yIDYuODI2NjY3IDkyLjE2IDUxLjIgOTIuMTYgMTA1LjgxMzMzNHY0MC45NmMwIDQwLjk2LTIwLjQ4IDc1LjA5MzMzMy01OC4wMjY2NjcgOTIuMTZsLTU0LjYxMzMzMyAyMC40OGMtMTAuMjQgMy40MTMzMzMtMTcuMDY2NjY3LTMuNDEzMzMzLTIwLjQ4LTEwLjI0LTMuNDEzMzMzLTEwLjI0IDMuNDEzMzMzLTE3LjA2NjY2NyAxMC4yNC0yMC40OGw1NC42MTMzMzMtMTcuMDY2NjY3YzIwLjQ4LTEwLjI0IDM0LjEzMzMzMy0zNC4xMzMzMzMgMzQuMTMzMzMzLTYxLjQ0di00MC45NmMwLTM3LjU0NjY2Ny0yNy4zMDY2NjctNjguMjY2NjY3LTYxLjQ0LTcxLjY4bC0xMTYuMDUzMzMzLTEzLjY1MzMzM2MtMTcuMDY2NjY3IDAtMzQuMTMzMzMzLTYuODI2NjY3LTQ3Ljc4NjY2Ny0xNy4wNjY2NjdMNjIyLjEzNDYxMyAzNDEuMzMzMzMzYy0xNy4wNjY2NjctMTAuMjQtMzQuMTMzMzMzLTE3LjA2NjY2Ny01NC42MTMzMzMtMjAuNDhMMzc2LjM3NDYxMyAzMDcuMmMtMzQuMTMzMzMzLTMuNDEzMzMzLTY0Ljg1MzMzMyAxMC4yNC04OC43NDY2NjYgMzQuMTMzMzMzTDIzOS44NDEyOCAzOTIuNTMzMzMzYy0zNC4xMzMzMzMgMzQuMTMzMzMzLTY4LjI2NjY2NyA1MS4yLTEwMi40IDUxLjJIMTAzLjMwNzk0N2MtMzcuNTQ2NjY3IDAtNjguMjY2NjY3IDMwLjcyLTY4LjI2NjY2NyA3MS42OHYxMTIuNjRjMCAxMy42NTMzMzMgMTAuMjQgMjcuMzA2NjY3IDI3LjMwNjY2NyAyNy4zMDY2NjdMMTAzLjMwNzk0NyA2NDguNTMzMzMzYzEwLjI0IDAgMTcuMDY2NjY3IDYuODI2NjY3IDE3LjA2NjY2NiAxNy4wNjY2NjdzLTYuODI2NjY3IDE3LjA2NjY2Ny0xNy4wNjY2NjYgMTcuMDY2NjY3bC00MC45NiAzLjQxMzMzM3pNMTIwLjM3NDYxMyAzNzUuNDY2NjY3aC02LjgyNjY2NmwtMTAyLjQtMzQuMTMzMzM0Yy02LjgyNjY2Ny0zLjQxMzMzMy0xMy42NTMzMzMtMTMuNjUzMzMzLTEwLjI0LTIzLjg5MzMzMyAzLjQxMzMzMy02LjgyNjY2NyAxMy42NTMzMzMtMTMuNjUzMzMzIDIzLjg5MzMzMy0xMC4yNGwxMDIuNCAzNC4xMzMzMzNjMTAuMjQgMy40MTMzMzMgMTMuNjUzMzMzIDEzLjY1MzMzMyAxMC4yNCAyMC40OC0zLjQxMzMzMyAxMC4yNC0xMC4yNCAxMy42NTMzMzMtMTcuMDY2NjY3IDEzLjY1MzMzNHoiLz48cGF0aCBmaWxsPSIjNEE5MTlCIiBkPSJNODYuMjQxMjggNDQzLjczMzMzM2MtNi44MjY2NjcgMC0xMy42NTMzMzMtMy40MTMzMzMtMTcuMDY2NjY3LTEwLjI0bC0zNC4xMzMzMzMtODUuMzMzMzMzYy0zLjQxMzMzMy0xMC4yNCAwLTE3LjA2NjY2NyAxMC4yNC0yMy44OTMzMzMgMTAuMjQtMy40MTMzMzMgMTcuMDY2NjY3IDAgMjAuNDggMTAuMjRsMzQuMTMzMzMzIDg1LjMzMzMzM2MzLjQxMzMzMyAxMC4yNCAwIDE3LjA2NjY2Ny0xMC4yNCAyMy44OTMzMzNoLTMuNDEzMzMzek04MjAuMTA3OTQ3IDc1MC45MzMzMzNjLTU4LjAyNjY2NyAwLTEwMi40LTQ3Ljc4NjY2Ny0xMDIuNC0xMDIuNCAwLTU4LjAyNjY2NyA0Ny43ODY2NjctMTAyLjQgMTAyLjQtMTAyLjRzMTAyLjQgNDcuNzg2NjY3IDEwMi40IDEwMi40LTQ0LjM3MzMzMyAxMDIuNC0xMDIuNCAxMDIuNHogbTAtMTcwLjY2NjY2NmMtMzcuNTQ2NjY3IDAtNjguMjY2NjY3IDMwLjcyLTY4LjI2NjY2NyA2OC4yNjY2NjZzMzAuNzIgNjguMjY2NjY3IDY4LjI2NjY2NyA2OC4yNjY2NjcgNjguMjY2NjY3LTMwLjcyIDY4LjI2NjY2Ni02OC4yNjY2NjctMzAuNzItNjguMjY2NjY3LTY4LjI2NjY2Ni02OC4yNjY2NjZ6TTIwNS43MDc5NDcgNzUwLjkzMzMzM2MtNTguMDI2NjY3IDAtMTAyLjQtNDQuMzczMzMzLTEwMi40LTEwMi40czQ0LjM3MzMzMy0xMDIuNCAxMDIuNC0xMDIuNCAxMDIuNCA0NC4zNzMzMzMgMTAyLjQgMTAyLjQtNDQuMzczMzMzIDEwMi40LTEwMi40IDEwMi40eiBtMC0xNzAuNjY2NjY2Yy0zNy41NDY2NjcgMC02OC4yNjY2NjcgMzAuNzItNjguMjY2NjY3IDY4LjI2NjY2NnMzMC43MiA2OC4yNjY2NjcgNjguMjY2NjY3IDY4LjI2NjY2NyA2OC4yNjY2NjctMzAuNzIgNjguMjY2NjY2LTY4LjI2NjY2Ny0zMC43Mi02OC4yNjY2NjctNjguMjY2NjY2LTY4LjI2NjY2NnoiLz48L3N2Zz4=;" parent="1" vertex="1">
          <mxGeometry x="357.12" y="454" width="55" height="55" as="geometry" />
        </mxCell>
        <mxCell id="jsef9Xo3sPEI110m0m4C-20" value="" style="shape=image;verticalLabelPosition=bottom;labelBackgroundColor=default;verticalAlign=top;aspect=fixed;imageAspect=0;image=data:image/svg+xml,PHN2ZyB4bWxuczp4bGluaz0iaHR0cDovL3d3dy53My5vcmcvMTk5OS94bGluayIgeG1sbnM9Imh0dHA6Ly93d3cudzMub3JnLzIwMDAvc3ZnIiBoZWlnaHQ9IjIwMCIgd2lkdGg9IjIwMCIgdmVyc2lvbj0iMS4xIiB2aWV3Qm94PSIwIDAgMTAyNCAxMDI0IiBjbGFzcz0iaWNvbiI+PHBhdGggZmlsbD0iIzRBOTE5QiIgZD0iTTczNC43NzQ2MTMgNjgyLjY2NjY2N2gtNDQzLjczMzMzM2MtMTAuMjQgMC0xNy4wNjY2NjctNi44MjY2NjctMTcuMDY2NjY3LTE3LjA2NjY2N3M2LjgyNjY2Ny0xNy4wNjY2NjcgMTcuMDY2NjY3LTE3LjA2NjY2N2g0NDMuNzMzMzMzYzEwLjI0IDAgMTcuMDY2NjY3IDYuODI2NjY3IDE3LjA2NjY2NyAxNy4wNjY2NjdzLTYuODI2NjY3IDE3LjA2NjY2Ny0xNy4wNjY2NjcgMTcuMDY2NjY3ek03MDAuNjQxMjggNDc3Ljg2NjY2N2gtMzQxLjMzMzMzM2MtNi44MjY2NjcgMC0xMC4yNC0zLjQxMzMzMy0xMy42NTMzMzQtNi44MjY2NjctMy40MTMzMzMtMy40MTMzMzMtMy40MTMzMzMtMTAuMjQtMy40MTMzMzMtMTcuMDY2NjY3IDAtMy40MTMzMzMgMjcuMzA2NjY3LTg1LjMzMzMzMyA3NS4wOTMzMzMtMTEyLjY0IDYuODI2NjY3LTMuNDEzMzMzIDE3LjA2NjY2Ny0zLjQxMzMzMyAyMy44OTMzMzQgNi44MjY2NjcgMy40MTMzMzMgNi44MjY2NjcgMy40MTMzMzMgMTcuMDY2NjY3LTYuODI2NjY3IDIzLjg5MzMzMy0yMy44OTMzMzMgMTMuNjUzMzMzLTQwLjk2IDQ0LjM3MzMzMy01MS4yIDcxLjY4aDMxNy40NGMxMC4yNCAwIDE3LjA2NjY2NyA2LjgyNjY2NyAxNy4wNjY2NjcgMTcuMDY2NjY3cy02LjgyNjY2NyAxNy4wNjY2NjctMTcuMDY2NjY3IDE3LjA2NjY2N3pNNTY0LjEwNzk0NyA1NDYuMTMzMzMzaC0zNC4xMzMzMzRjLTEwLjI0IDAtMTcuMDY2NjY3LTYuODI2NjY3LTE3LjA2NjY2Ni0xNy4wNjY2NjZzNi44MjY2NjctMTcuMDY2NjY3IDE3LjA2NjY2Ni0xNy4wNjY2NjdoMzQuMTMzMzM0YzEwLjI0IDAgMTcuMDY2NjY3IDYuODI2NjY3IDE3LjA2NjY2NiAxNy4wNjY2NjdzLTYuODI2NjY3IDE3LjA2NjY2Ny0xNy4wNjY2NjYgMTcuMDY2NjY2eiIvPjxwYXRoIGZpbGw9IiM0QTkxOUIiIGQ9Ik02Mi4zNDc5NDcgNjg2LjA4Yy0zNC4xMzMzMzMgMC02MS40NC0yNy4zMDY2NjctNjEuNDQtNjEuNDRWNTEyYzAtNTguMDI2NjY3IDQ3Ljc4NjY2Ny0xMDUuODEzMzMzIDEwMi40LTEwNS44MTMzMzNoMzQuMTMzMzMzYzIzLjg5MzMzMyAwIDUxLjItMTMuNjUzMzMzIDc4LjUwNjY2Ny00MC45Nmw0Ny43ODY2NjYtNTEuMkMyOTQuNDU0NjEzIDI4Ni43MiAzMzUuNDE0NjEzIDI2OS42NTMzMzMgMzc2LjM3NDYxMyAyNzMuMDY2NjY3bDE5NC41NiAxMy42NTMzMzNjMjMuODkzMzMzIDMuNDEzMzMzIDQ3Ljc4NjY2NyAxMC4yNCA3MS42OCAyMy44OTMzMzNsMTQzLjM2IDg4Ljc0NjY2N2MxMC4yNCA2LjgyNjY2NyAyMC40OCAxMC4yNCAzMC43MiAxMC4yNGwxMTYuMDUzMzM0IDEzLjY1MzMzM2M1MS4yIDYuODI2NjY3IDkyLjE2IDUxLjIgOTIuMTYgMTA1LjgxMzMzNHY0MC45NmMwIDQwLjk2LTIwLjQ4IDc1LjA5MzMzMy01OC4wMjY2NjcgOTIuMTZsLTU0LjYxMzMzMyAyMC40OGMtMTAuMjQgMy40MTMzMzMtMTcuMDY2NjY3LTMuNDEzMzMzLTIwLjQ4LTEwLjI0LTMuNDEzMzMzLTEwLjI0IDMuNDEzMzMzLTE3LjA2NjY2NyAxMC4yNC0yMC40OGw1NC42MTMzMzMtMTcuMDY2NjY3YzIwLjQ4LTEwLjI0IDM0LjEzMzMzMy0zNC4xMzMzMzMgMzQuMTMzMzMzLTYxLjQ0di00MC45NmMwLTM3LjU0NjY2Ny0yNy4zMDY2NjctNjguMjY2NjY3LTYxLjQ0LTcxLjY4bC0xMTYuMDUzMzMzLTEzLjY1MzMzM2MtMTcuMDY2NjY3IDAtMzQuMTMzMzMzLTYuODI2NjY3LTQ3Ljc4NjY2Ny0xNy4wNjY2NjdMNjIyLjEzNDYxMyAzNDEuMzMzMzMzYy0xNy4wNjY2NjctMTAuMjQtMzQuMTMzMzMzLTE3LjA2NjY2Ny01NC42MTMzMzMtMjAuNDhMMzc2LjM3NDYxMyAzMDcuMmMtMzQuMTMzMzMzLTMuNDEzMzMzLTY0Ljg1MzMzMyAxMC4yNC04OC43NDY2NjYgMzQuMTMzMzMzTDIzOS44NDEyOCAzOTIuNTMzMzMzYy0zNC4xMzMzMzMgMzQuMTMzMzMzLTY4LjI2NjY2NyA1MS4yLTEwMi40IDUxLjJIMTAzLjMwNzk0N2MtMzcuNTQ2NjY3IDAtNjguMjY2NjY3IDMwLjcyLTY4LjI2NjY2NyA3MS42OHYxMTIuNjRjMCAxMy42NTMzMzMgMTAuMjQgMjcuMzA2NjY3IDI3LjMwNjY2NyAyNy4zMDY2NjdMMTAzLjMwNzk0NyA2NDguNTMzMzMzYzEwLjI0IDAgMTcuMDY2NjY3IDYuODI2NjY3IDE3LjA2NjY2NiAxNy4wNjY2NjdzLTYuODI2NjY3IDE3LjA2NjY2Ny0xNy4wNjY2NjYgMTcuMDY2NjY3bC00MC45NiAzLjQxMzMzM3pNMTIwLjM3NDYxMyAzNzUuNDY2NjY3aC02LjgyNjY2NmwtMTAyLjQtMzQuMTMzMzM0Yy02LjgyNjY2Ny0zLjQxMzMzMy0xMy42NTMzMzMtMTMuNjUzMzMzLTEwLjI0LTIzLjg5MzMzMyAzLjQxMzMzMy02LjgyNjY2NyAxMy42NTMzMzMtMTMuNjUzMzMzIDIzLjg5MzMzMy0xMC4yNGwxMDIuNCAzNC4xMzMzMzNjMTAuMjQgMy40MTMzMzMgMTMuNjUzMzMzIDEzLjY1MzMzMyAxMC4yNCAyMC40OC0zLjQxMzMzMyAxMC4yNC0xMC4yNCAxMy42NTMzMzMtMTcuMDY2NjY3IDEzLjY1MzMzNHoiLz48cGF0aCBmaWxsPSIjNEE5MTlCIiBkPSJNODYuMjQxMjggNDQzLjczMzMzM2MtNi44MjY2NjcgMC0xMy42NTMzMzMtMy40MTMzMzMtMTcuMDY2NjY3LTEwLjI0bC0zNC4xMzMzMzMtODUuMzMzMzMzYy0zLjQxMzMzMy0xMC4yNCAwLTE3LjA2NjY2NyAxMC4yNC0yMy44OTMzMzMgMTAuMjQtMy40MTMzMzMgMTcuMDY2NjY3IDAgMjAuNDggMTAuMjRsMzQuMTMzMzMzIDg1LjMzMzMzM2MzLjQxMzMzMyAxMC4yNCAwIDE3LjA2NjY2Ny0xMC4yNCAyMy44OTMzMzNoLTMuNDEzMzMzek04MjAuMTA3OTQ3IDc1MC45MzMzMzNjLTU4LjAyNjY2NyAwLTEwMi40LTQ3Ljc4NjY2Ny0xMDIuNC0xMDIuNCAwLTU4LjAyNjY2NyA0Ny43ODY2NjctMTAyLjQgMTAyLjQtMTAyLjRzMTAyLjQgNDcuNzg2NjY3IDEwMi40IDEwMi40LTQ0LjM3MzMzMyAxMDIuNC0xMDIuNCAxMDIuNHogbTAtMTcwLjY2NjY2NmMtMzcuNTQ2NjY3IDAtNjguMjY2NjY3IDMwLjcyLTY4LjI2NjY2NyA2OC4yNjY2NjZzMzAuNzIgNjguMjY2NjY3IDY4LjI2NjY2NyA2OC4yNjY2NjcgNjguMjY2NjY3LTMwLjcyIDY4LjI2NjY2Ni02OC4yNjY2NjctMzAuNzItNjguMjY2NjY3LTY4LjI2NjY2Ni02OC4yNjY2NjZ6TTIwNS43MDc5NDcgNzUwLjkzMzMzM2MtNTguMDI2NjY3IDAtMTAyLjQtNDQuMzczMzMzLTEwMi40LTEwMi40czQ0LjM3MzMzMy0xMDIuNCAxMDIuNC0xMDIuNCAxMDIuNCA0NC4zNzMzMzMgMTAyLjQgMTAyLjQtNDQuMzczMzMzIDEwMi40LTEwMi40IDEwMi40eiBtMC0xNzAuNjY2NjY2Yy0zNy41NDY2NjcgMC02OC4yNjY2NjcgMzAuNzItNjguMjY2NjY3IDY4LjI2NjY2NnMzMC43MiA2OC4yNjY2NjcgNjguMjY2NjY3IDY4LjI2NjY2NyA2OC4yNjY2NjctMzAuNzIgNjguMjY2NjY2LTY4LjI2NjY2Ny0zMC43Mi02OC4yNjY2NjctNjguMjY2NjY2LTY4LjI2NjY2NnoiLz48L3N2Zz4=;" parent="1" vertex="1">
          <mxGeometry x="422.12" y="454" width="55" height="55" as="geometry" />
        </mxCell>
        <mxCell id="jsef9Xo3sPEI110m0m4C-21" value="" style="shape=image;verticalLabelPosition=bottom;labelBackgroundColor=default;verticalAlign=top;aspect=fixed;imageAspect=0;image=data:image/svg+xml,PHN2ZyB4bWxuczp4bGluaz0iaHR0cDovL3d3dy53My5vcmcvMTk5OS94bGluayIgeG1sbnM9Imh0dHA6Ly93d3cudzMub3JnLzIwMDAvc3ZnIiBoZWlnaHQ9IjIwMCIgd2lkdGg9IjIwMCIgdmVyc2lvbj0iMS4xIiB2aWV3Qm94PSIwIDAgMTAyNCAxMDI0IiBjbGFzcz0iaWNvbiI+PHBhdGggZmlsbD0iIzUzNUU4MCIgZD0iTTk2MCAzMjBINjRjLTM1LjM0NiAwLTY0LTI4LjY1NC02NC02NFYxMjhjMC0zNS4zNDYgMjguNjU0LTY0IDY0LTY0aDg5NmMzNS4zNDYgMCA2NCAyOC42NTQgNjQgNjR2MTI4YzAgMzUuMzQ2LTI4LjY1NCA2NC02NCA2NHogbS05Ni0xNzZjLTI2LjUxIDAtNDggMjEuNDktNDggNDhzMjEuNDkgNDggNDggNDggNDgtMjEuNDkgNDgtNDgtMjEuNDktNDgtNDgtNDh6IG0tMTI4IDBjLTI2LjUxIDAtNDggMjEuNDktNDggNDhzMjEuNDkgNDggNDggNDggNDgtMjEuNDkgNDgtNDgtMjEuNDktNDgtNDgtNDh6IG0yMjQgNDk2SDY0Yy0zNS4zNDYgMC02NC0yOC42NTQtNjQtNjR2LTEyOGMwLTM1LjM0NiAyOC42NTQtNjQgNjQtNjRoODk2YzM1LjM0NiAwIDY0IDI4LjY1NCA2NCA2NHYxMjhjMCAzNS4zNDYtMjguNjU0IDY0LTY0IDY0eiBtLTk2LTE3NmMtMjYuNTEgMC00OCAyMS40OS00OCA0OHMyMS40OSA0OCA0OCA0OCA0OC0yMS40OSA0OC00OC0yMS40OS00OC00OC00OHogbS0xMjggMGMtMjYuNTEgMC00OCAyMS40OS00OCA0OHMyMS40OSA0OCA0OCA0OCA0OC0yMS40OSA0OC00OC0yMS40OS00OC00OC00OHogbTIyNCA0OTZINjRjLTM1LjM0NiAwLTY0LTI4LjY1NC02NC02NHYtMTI4YzAtMzUuMzQ2IDI4LjY1NC02NCA2NC02NGg4OTZjMzUuMzQ2IDAgNjQgMjguNjU0IDY0IDY0djEyOGMwIDM1LjM0Ni0yOC42NTQgNjQtNjQgNjR6IG0tOTYtMTc2Yy0yNi41MSAwLTQ4IDIxLjQ5LTQ4IDQ4czIxLjQ5IDQ4IDQ4IDQ4IDQ4LTIxLjQ5IDQ4LTQ4LTIxLjQ5LTQ4LTQ4LTQ4eiBtLTEyOCAwYy0yNi41MSAwLTQ4IDIxLjQ5LTQ4IDQ4czIxLjQ5IDQ4IDQ4IDQ4IDQ4LTIxLjQ5IDQ4LTQ4LTIxLjQ5LTQ4LTQ4LTQ4eiIvPjwvc3ZnPg==;" parent="1" vertex="1">
          <mxGeometry x="540.27" y="398.58" width="33.85" height="33.85" as="geometry" />
        </mxCell>
        <mxCell id="jsef9Xo3sPEI110m0m4C-22" value="" style="shape=image;verticalLabelPosition=bottom;verticalAlign=top;imageAspect=0;aspect=fixed;image=data:image/svg+xml,PHN2ZyB4bWxuczp4bGluaz0iaHR0cDovL3d3dy53My5vcmcvMTk5OS94bGluayIgeG1sbnM9Imh0dHA6Ly93d3cudzMub3JnLzIwMDAvc3ZnIiBoZWlnaHQ9IjIwMCIgd2lkdGg9IjIwMCIgdmVyc2lvbj0iMS4xIiB2aWV3Qm94PSIwIDAgMTAyNCAxMDI0IiBjbGFzcz0iaWNvbiI+PGRlZnM+PHN0eWxlIHR5cGU9InRleHQvY3NzIj5AZm9udC1mYWNlIHsgZm9udC1mYW1pbHk6IGZlZWRiYWNrLWljb25mb250OyBzcmM6IHVybCgiLy9hdC5hbGljZG4uY29tL3QvZm9udF8xMDMxMTU4X3U2OXc4eWh4ZHUud29mZjI/dD0xNjMwMDMzNzU5OTQ0IikgZm9ybWF0KCJ3b2ZmMiIpLCB1cmwoIi8vYXQuYWxpY2RuLmNvbS90L2ZvbnRfMTAzMTE1OF91Njl3OHloeGR1LndvZmY/dD0xNjMwMDMzNzU5OTQ0IikgZm9ybWF0KCJ3b2ZmIiksIHVybCgiLy9hdC5hbGljZG4uY29tL3QvZm9udF8xMDMxMTU4X3U2OXc4eWh4ZHUudHRmP3Q9MTYzMDAzMzc1OTk0NCIpIGZvcm1hdCgidHJ1ZXR5cGUiKTsgfSYjeGE7PC9zdHlsZT48L2RlZnM+PHBhdGggZmlsbD0iIzUzNUU4MCIgZD0iTTg5OS4wNzIgMTA4LjU0NGgtNzc0LjE0NEM4NS42MDY0IDEwOC41NDQgNTMuMjQ4IDE0MC45MDI0IDUzLjI0OCAxODAuMjI0djUyOC4zODRjMCAzOS4zMjE2IDMyLjM1ODQgNzEuNjggNzEuNjggNzEuNjhIMzM1Ljg3MnY3My43MjhIMjQ3LjgwOGMtMTYuNzkzNiAwLTMwLjcyIDEzLjkyNjQtMzAuNzIgMzAuNzJzMTMuOTI2NCAzMC43MiAzMC43MiAzMC43Mmg1MjguMzg0YzE2Ljc5MzYgMCAzMC43Mi0xMy45MjY0IDMwLjcyLTMwLjcycy0xMy45MjY0LTMwLjcyLTMwLjcyLTMwLjcySDY4OC4xMjh2LTczLjcyOGgyMTAuOTQ0YzM5LjMyMTYgMCA3MS42OC0zMi4zNTg0IDcxLjY4LTcxLjY4VjE4MC4yMjRjMC0zOS4zMjE2LTMyLjM1ODQtNzEuNjgtNzEuNjgtNzEuNjh6IG0tNzc0LjE0NCA2MS40NGg3NzQuMTQ0YzUuNzM0NCAwIDEwLjI0IDQuNTA1NiAxMC4yNCAxMC4yNHYzNTQuMzA0SDExNC42ODhWMTgwLjIyNGMwLTUuNzM0NCA0LjUwNTYtMTAuMjQgMTAuMjQtMTAuMjR6IG01MDEuNzYgNjg0LjAzMkgzOTcuMzEydi03My43MjhoMjI5LjM3NnY3My43Mjh6IG0yODIuNjI0LTE0NS40MDhjMCA1LjczNDQtNC41MDU2IDEwLjI0LTEwLjI0IDEwLjI0aC03NzQuMTQ0Yy01LjczNDQgMC0xMC4yNC00LjUwNTYtMTAuMjQtMTAuMjR2LTExMi42NGg3OTQuNjI0VjcwOC42MDh6Ii8+PC9zdmc+;dashed=1;fillColor=none;" parent="1" vertex="1">
          <mxGeometry x="26" y="393.38" width="44.25" height="44.25" as="geometry" />
        </mxCell>
        <mxCell id="jsef9Xo3sPEI110m0m4C-23" value="" style="shape=image;verticalLabelPosition=bottom;labelBackgroundColor=default;verticalAlign=top;aspect=fixed;imageAspect=0;image=data:image/svg+xml,PHN2ZyB4bWxuczp4bGluaz0iaHR0cDovL3d3dy53My5vcmcvMTk5OS94bGluayIgeG1sbnM9Imh0dHA6Ly93d3cudzMub3JnLzIwMDAvc3ZnIiBoZWlnaHQ9IjIwMCIgd2lkdGg9IjIwMCIgdmVyc2lvbj0iMS4xIiB2aWV3Qm94PSIwIDAgMTAyNCAxMDI0IiBjbGFzcz0iaWNvbiI+PHBhdGggZmlsbD0iIzRBOTE5QiIgZD0iTTczNC43NzQ2MTMgNjgyLjY2NjY2N2gtNDQzLjczMzMzM2MtMTAuMjQgMC0xNy4wNjY2NjctNi44MjY2NjctMTcuMDY2NjY3LTE3LjA2NjY2N3M2LjgyNjY2Ny0xNy4wNjY2NjcgMTcuMDY2NjY3LTE3LjA2NjY2N2g0NDMuNzMzMzMzYzEwLjI0IDAgMTcuMDY2NjY3IDYuODI2NjY3IDE3LjA2NjY2NyAxNy4wNjY2NjdzLTYuODI2NjY3IDE3LjA2NjY2Ny0xNy4wNjY2NjcgMTcuMDY2NjY3ek03MDAuNjQxMjggNDc3Ljg2NjY2N2gtMzQxLjMzMzMzM2MtNi44MjY2NjcgMC0xMC4yNC0zLjQxMzMzMy0xMy42NTMzMzQtNi44MjY2NjctMy40MTMzMzMtMy40MTMzMzMtMy40MTMzMzMtMTAuMjQtMy40MTMzMzMtMTcuMDY2NjY3IDAtMy40MTMzMzMgMjcuMzA2NjY3LTg1LjMzMzMzMyA3NS4wOTMzMzMtMTEyLjY0IDYuODI2NjY3LTMuNDEzMzMzIDE3LjA2NjY2Ny0zLjQxMzMzMyAyMy44OTMzMzQgNi44MjY2NjcgMy40MTMzMzMgNi44MjY2NjcgMy40MTMzMzMgMTcuMDY2NjY3LTYuODI2NjY3IDIzLjg5MzMzMy0yMy44OTMzMzMgMTMuNjUzMzMzLTQwLjk2IDQ0LjM3MzMzMy01MS4yIDcxLjY4aDMxNy40NGMxMC4yNCAwIDE3LjA2NjY2NyA2LjgyNjY2NyAxNy4wNjY2NjcgMTcuMDY2NjY3cy02LjgyNjY2NyAxNy4wNjY2NjctMTcuMDY2NjY3IDE3LjA2NjY2N3pNNTY0LjEwNzk0NyA1NDYuMTMzMzMzaC0zNC4xMzMzMzRjLTEwLjI0IDAtMTcuMDY2NjY3LTYuODI2NjY3LTE3LjA2NjY2Ni0xNy4wNjY2NjZzNi44MjY2NjctMTcuMDY2NjY3IDE3LjA2NjY2Ni0xNy4wNjY2NjdoMzQuMTMzMzM0YzEwLjI0IDAgMTcuMDY2NjY3IDYuODI2NjY3IDE3LjA2NjY2NiAxNy4wNjY2NjdzLTYuODI2NjY3IDE3LjA2NjY2Ny0xNy4wNjY2NjYgMTcuMDY2NjY2eiIvPjxwYXRoIGZpbGw9IiM0QTkxOUIiIGQ9Ik02Mi4zNDc5NDcgNjg2LjA4Yy0zNC4xMzMzMzMgMC02MS40NC0yNy4zMDY2NjctNjEuNDQtNjEuNDRWNTEyYzAtNTguMDI2NjY3IDQ3Ljc4NjY2Ny0xMDUuODEzMzMzIDEwMi40LTEwNS44MTMzMzNoMzQuMTMzMzMzYzIzLjg5MzMzMyAwIDUxLjItMTMuNjUzMzMzIDc4LjUwNjY2Ny00MC45Nmw0Ny43ODY2NjYtNTEuMkMyOTQuNDU0NjEzIDI4Ni43MiAzMzUuNDE0NjEzIDI2OS42NTMzMzMgMzc2LjM3NDYxMyAyNzMuMDY2NjY3bDE5NC41NiAxMy42NTMzMzNjMjMuODkzMzMzIDMuNDEzMzMzIDQ3Ljc4NjY2NyAxMC4yNCA3MS42OCAyMy44OTMzMzNsMTQzLjM2IDg4Ljc0NjY2N2MxMC4yNCA2LjgyNjY2NyAyMC40OCAxMC4yNCAzMC43MiAxMC4yNGwxMTYuMDUzMzM0IDEzLjY1MzMzM2M1MS4yIDYuODI2NjY3IDkyLjE2IDUxLjIgOTIuMTYgMTA1LjgxMzMzNHY0MC45NmMwIDQwLjk2LTIwLjQ4IDc1LjA5MzMzMy01OC4wMjY2NjcgOTIuMTZsLTU0LjYxMzMzMyAyMC40OGMtMTAuMjQgMy40MTMzMzMtMTcuMDY2NjY3LTMuNDEzMzMzLTIwLjQ4LTEwLjI0LTMuNDEzMzMzLTEwLjI0IDMuNDEzMzMzLTE3LjA2NjY2NyAxMC4yNC0yMC40OGw1NC42MTMzMzMtMTcuMDY2NjY3YzIwLjQ4LTEwLjI0IDM0LjEzMzMzMy0zNC4xMzMzMzMgMzQuMTMzMzMzLTYxLjQ0di00MC45NmMwLTM3LjU0NjY2Ny0yNy4zMDY2NjctNjguMjY2NjY3LTYxLjQ0LTcxLjY4bC0xMTYuMDUzMzMzLTEzLjY1MzMzM2MtMTcuMDY2NjY3IDAtMzQuMTMzMzMzLTYuODI2NjY3LTQ3Ljc4NjY2Ny0xNy4wNjY2NjdMNjIyLjEzNDYxMyAzNDEuMzMzMzMzYy0xNy4wNjY2NjctMTAuMjQtMzQuMTMzMzMzLTE3LjA2NjY2Ny01NC42MTMzMzMtMjAuNDhMMzc2LjM3NDYxMyAzMDcuMmMtMzQuMTMzMzMzLTMuNDEzMzMzLTY0Ljg1MzMzMyAxMC4yNC04OC43NDY2NjYgMzQuMTMzMzMzTDIzOS44NDEyOCAzOTIuNTMzMzMzYy0zNC4xMzMzMzMgMzQuMTMzMzMzLTY4LjI2NjY2NyA1MS4yLTEwMi40IDUxLjJIMTAzLjMwNzk0N2MtMzcuNTQ2NjY3IDAtNjguMjY2NjY3IDMwLjcyLTY4LjI2NjY2NyA3MS42OHYxMTIuNjRjMCAxMy42NTMzMzMgMTAuMjQgMjcuMzA2NjY3IDI3LjMwNjY2NyAyNy4zMDY2NjdMMTAzLjMwNzk0NyA2NDguNTMzMzMzYzEwLjI0IDAgMTcuMDY2NjY3IDYuODI2NjY3IDE3LjA2NjY2NiAxNy4wNjY2NjdzLTYuODI2NjY3IDE3LjA2NjY2Ny0xNy4wNjY2NjYgMTcuMDY2NjY3bC00MC45NiAzLjQxMzMzM3pNMTIwLjM3NDYxMyAzNzUuNDY2NjY3aC02LjgyNjY2NmwtMTAyLjQtMzQuMTMzMzM0Yy02LjgyNjY2Ny0zLjQxMzMzMy0xMy42NTMzMzMtMTMuNjUzMzMzLTEwLjI0LTIzLjg5MzMzMyAzLjQxMzMzMy02LjgyNjY2NyAxMy42NTMzMzMtMTMuNjUzMzMzIDIzLjg5MzMzMy0xMC4yNGwxMDIuNCAzNC4xMzMzMzNjMTAuMjQgMy40MTMzMzMgMTMuNjUzMzMzIDEzLjY1MzMzMyAxMC4yNCAyMC40OC0zLjQxMzMzMyAxMC4yNC0xMC4yNCAxMy42NTMzMzMtMTcuMDY2NjY3IDEzLjY1MzMzNHoiLz48cGF0aCBmaWxsPSIjNEE5MTlCIiBkPSJNODYuMjQxMjggNDQzLjczMzMzM2MtNi44MjY2NjcgMC0xMy42NTMzMzMtMy40MTMzMzMtMTcuMDY2NjY3LTEwLjI0bC0zNC4xMzMzMzMtODUuMzMzMzMzYy0zLjQxMzMzMy0xMC4yNCAwLTE3LjA2NjY2NyAxMC4yNC0yMy44OTMzMzMgMTAuMjQtMy40MTMzMzMgMTcuMDY2NjY3IDAgMjAuNDggMTAuMjRsMzQuMTMzMzMzIDg1LjMzMzMzM2MzLjQxMzMzMyAxMC4yNCAwIDE3LjA2NjY2Ny0xMC4yNCAyMy44OTMzMzNoLTMuNDEzMzMzek04MjAuMTA3OTQ3IDc1MC45MzMzMzNjLTU4LjAyNjY2NyAwLTEwMi40LTQ3Ljc4NjY2Ny0xMDIuNC0xMDIuNCAwLTU4LjAyNjY2NyA0Ny43ODY2NjctMTAyLjQgMTAyLjQtMTAyLjRzMTAyLjQgNDcuNzg2NjY3IDEwMi40IDEwMi40LTQ0LjM3MzMzMyAxMDIuNC0xMDIuNCAxMDIuNHogbTAtMTcwLjY2NjY2NmMtMzcuNTQ2NjY3IDAtNjguMjY2NjY3IDMwLjcyLTY4LjI2NjY2NyA2OC4yNjY2NjZzMzAuNzIgNjguMjY2NjY3IDY4LjI2NjY2NyA2OC4yNjY2NjcgNjguMjY2NjY3LTMwLjcyIDY4LjI2NjY2Ni02OC4yNjY2NjctMzAuNzItNjguMjY2NjY3LTY4LjI2NjY2Ni02OC4yNjY2NjZ6TTIwNS43MDc5NDcgNzUwLjkzMzMzM2MtNTguMDI2NjY3IDAtMTAyLjQtNDQuMzczMzMzLTEwMi40LTEwMi40czQ0LjM3MzMzMy0xMDIuNCAxMDIuNC0xMDIuNCAxMDIuNCA0NC4zNzMzMzMgMTAyLjQgMTAyLjQtNDQuMzczMzMzIDEwMi40LTEwMi40IDEwMi40eiBtMC0xNzAuNjY2NjY2Yy0zNy41NDY2NjcgMC02OC4yNjY2NjcgMzAuNzItNjguMjY2NjY3IDY4LjI2NjY2NnMzMC43MiA2OC4yNjY2NjcgNjguMjY2NjY3IDY4LjI2NjY2NyA2OC4yNjY2NjctMzAuNzIgNjguMjY2NjY2LTY4LjI2NjY2Ny0zMC43Mi02OC4yNjY2NjctNjguMjY2NjY2LTY4LjI2NjY2NnoiLz48L3N2Zz4=;" parent="1" vertex="1">
          <mxGeometry x="74.12" y="474.25" width="37" height="37" as="geometry" />
        </mxCell>
        <mxCell id="jsef9Xo3sPEI110m0m4C-24" value="" style="shape=flexArrow;endArrow=classic;html=1;rounded=0;strokeColor=none;fillColor=#FDD276;width=8.070175438596491;endSize=3.5508771929824556;endWidth=11.905201600492457;" parent="1" edge="1">
          <mxGeometry width="50" height="50" relative="1" as="geometry">
            <mxPoint x="117.12" y="481.56999999999994" as="sourcePoint" />
            <mxPoint x="147.12" y="482" as="targetPoint" />
          </mxGeometry>
        </mxCell>
        <mxCell id="jsef9Xo3sPEI110m0m4C-25" value="" style="rounded=1;whiteSpace=wrap;html=1;fillColor=none;dashed=1;strokeColor=#535E80;strokeWidth=1;" parent="1" vertex="1">
          <mxGeometry x="163.12" y="397.93" width="59" height="34.5" as="geometry" />
        </mxCell>
        <mxCell id="jsef9Xo3sPEI110m0m4C-26" value="" style="shape=image;verticalLabelPosition=bottom;labelBackgroundColor=default;verticalAlign=top;aspect=fixed;imageAspect=0;image=data:image/svg+xml,PHN2ZyB4bWxuczp4bGluaz0iaHR0cDovL3d3dy53My5vcmcvMTk5OS94bGluayIgeG1sbnM9Imh0dHA6Ly93d3cudzMub3JnLzIwMDAvc3ZnIiBoZWlnaHQ9IjIwMCIgd2lkdGg9IjIwMCIgdmVyc2lvbj0iMS4xIiB2aWV3Qm94PSIwIDAgMTAyNCAxMDI0IiBjbGFzcz0iaWNvbiI+PHBhdGggZmlsbD0iIzUzNUU4MCIgZD0iTTczNC43NzQ2MTMgNjgyLjY2NjY2N2gtNDQzLjczMzMzM2MtMTAuMjQgMC0xNy4wNjY2NjctNi44MjY2NjctMTcuMDY2NjY3LTE3LjA2NjY2N3M2LjgyNjY2Ny0xNy4wNjY2NjcgMTcuMDY2NjY3LTE3LjA2NjY2N2g0NDMuNzMzMzMzYzEwLjI0IDAgMTcuMDY2NjY3IDYuODI2NjY3IDE3LjA2NjY2NyAxNy4wNjY2NjdzLTYuODI2NjY3IDE3LjA2NjY2Ny0xNy4wNjY2NjcgMTcuMDY2NjY3ek03MDAuNjQxMjggNDc3Ljg2NjY2N2gtMzQxLjMzMzMzM2MtNi44MjY2NjcgMC0xMC4yNC0zLjQxMzMzMy0xMy42NTMzMzQtNi44MjY2NjctMy40MTMzMzMtMy40MTMzMzMtMy40MTMzMzMtMTAuMjQtMy40MTMzMzMtMTcuMDY2NjY3IDAtMy40MTMzMzMgMjcuMzA2NjY3LTg1LjMzMzMzMyA3NS4wOTMzMzMtMTEyLjY0IDYuODI2NjY3LTMuNDEzMzMzIDE3LjA2NjY2Ny0zLjQxMzMzMyAyMy44OTMzMzQgNi44MjY2NjcgMy40MTMzMzMgNi44MjY2NjcgMy40MTMzMzMgMTcuMDY2NjY3LTYuODI2NjY3IDIzLjg5MzMzMy0yMy44OTMzMzMgMTMuNjUzMzMzLTQwLjk2IDQ0LjM3MzMzMy01MS4yIDcxLjY4aDMxNy40NGMxMC4yNCAwIDE3LjA2NjY2NyA2LjgyNjY2NyAxNy4wNjY2NjcgMTcuMDY2NjY3cy02LjgyNjY2NyAxNy4wNjY2NjctMTcuMDY2NjY3IDE3LjA2NjY2N3pNNTY0LjEwNzk0NyA1NDYuMTMzMzMzaC0zNC4xMzMzMzRjLTEwLjI0IDAtMTcuMDY2NjY3LTYuODI2NjY3LTE3LjA2NjY2Ni0xNy4wNjY2NjZzNi44MjY2NjctMTcuMDY2NjY3IDE3LjA2NjY2Ni0xNy4wNjY2NjdoMzQuMTMzMzM0YzEwLjI0IDAgMTcuMDY2NjY3IDYuODI2NjY3IDE3LjA2NjY2NiAxNy4wNjY2NjdzLTYuODI2NjY3IDE3LjA2NjY2Ny0xNy4wNjY2NjYgMTcuMDY2NjY2eiIvPjxwYXRoIGZpbGw9IiM1MzVFODAiIGQ9Ik02Mi4zNDc5NDcgNjg2LjA4Yy0zNC4xMzMzMzMgMC02MS40NC0yNy4zMDY2NjctNjEuNDQtNjEuNDRWNTEyYzAtNTguMDI2NjY3IDQ3Ljc4NjY2Ny0xMDUuODEzMzMzIDEwMi40LTEwNS44MTMzMzNoMzQuMTMzMzMzYzIzLjg5MzMzMyAwIDUxLjItMTMuNjUzMzMzIDc4LjUwNjY2Ny00MC45Nmw0Ny43ODY2NjYtNTEuMkMyOTQuNDU0NjEzIDI4Ni43MiAzMzUuNDE0NjEzIDI2OS42NTMzMzMgMzc2LjM3NDYxMyAyNzMuMDY2NjY3bDE5NC41NiAxMy42NTMzMzNjMjMuODkzMzMzIDMuNDEzMzMzIDQ3Ljc4NjY2NyAxMC4yNCA3MS42OCAyMy44OTMzMzNsMTQzLjM2IDg4Ljc0NjY2N2MxMC4yNCA2LjgyNjY2NyAyMC40OCAxMC4yNCAzMC43MiAxMC4yNGwxMTYuMDUzMzM0IDEzLjY1MzMzM2M1MS4yIDYuODI2NjY3IDkyLjE2IDUxLjIgOTIuMTYgMTA1LjgxMzMzNHY0MC45NmMwIDQwLjk2LTIwLjQ4IDc1LjA5MzMzMy01OC4wMjY2NjcgOTIuMTZsLTU0LjYxMzMzMyAyMC40OGMtMTAuMjQgMy40MTMzMzMtMTcuMDY2NjY3LTMuNDEzMzMzLTIwLjQ4LTEwLjI0LTMuNDEzMzMzLTEwLjI0IDMuNDEzMzMzLTE3LjA2NjY2NyAxMC4yNC0yMC40OGw1NC42MTMzMzMtMTcuMDY2NjY3YzIwLjQ4LTEwLjI0IDM0LjEzMzMzMy0zNC4xMzMzMzMgMzQuMTMzMzMzLTYxLjQ0di00MC45NmMwLTM3LjU0NjY2Ny0yNy4zMDY2NjctNjguMjY2NjY3LTYxLjQ0LTcxLjY4bC0xMTYuMDUzMzMzLTEzLjY1MzMzM2MtMTcuMDY2NjY3IDAtMzQuMTMzMzMzLTYuODI2NjY3LTQ3Ljc4NjY2Ny0xNy4wNjY2NjdMNjIyLjEzNDYxMyAzNDEuMzMzMzMzYy0xNy4wNjY2NjctMTAuMjQtMzQuMTMzMzMzLTE3LjA2NjY2Ny01NC42MTMzMzMtMjAuNDhMMzc2LjM3NDYxMyAzMDcuMmMtMzQuMTMzMzMzLTMuNDEzMzMzLTY0Ljg1MzMzMyAxMC4yNC04OC43NDY2NjYgMzQuMTMzMzMzTDIzOS44NDEyOCAzOTIuNTMzMzMzYy0zNC4xMzMzMzMgMzQuMTMzMzMzLTY4LjI2NjY2NyA1MS4yLTEwMi40IDUxLjJIMTAzLjMwNzk0N2MtMzcuNTQ2NjY3IDAtNjguMjY2NjY3IDMwLjcyLTY4LjI2NjY2NyA3MS42OHYxMTIuNjRjMCAxMy42NTMzMzMgMTAuMjQgMjcuMzA2NjY3IDI3LjMwNjY2NyAyNy4zMDY2NjdMMTAzLjMwNzk0NyA2NDguNTMzMzMzYzEwLjI0IDAgMTcuMDY2NjY3IDYuODI2NjY3IDE3LjA2NjY2NiAxNy4wNjY2NjdzLTYuODI2NjY3IDE3LjA2NjY2Ny0xNy4wNjY2NjYgMTcuMDY2NjY3bC00MC45NiAzLjQxMzMzM3pNMTIwLjM3NDYxMyAzNzUuNDY2NjY3aC02LjgyNjY2NmwtMTAyLjQtMzQuMTMzMzM0Yy02LjgyNjY2Ny0zLjQxMzMzMy0xMy42NTMzMzMtMTMuNjUzMzMzLTEwLjI0LTIzLjg5MzMzMyAzLjQxMzMzMy02LjgyNjY2NyAxMy42NTMzMzMtMTMuNjUzMzMzIDIzLjg5MzMzMy0xMC4yNGwxMDIuNCAzNC4xMzMzMzNjMTAuMjQgMy40MTMzMzMgMTMuNjUzMzMzIDEzLjY1MzMzMyAxMC4yNCAyMC40OC0zLjQxMzMzMyAxMC4yNC0xMC4yNCAxMy42NTMzMzMtMTcuMDY2NjY3IDEzLjY1MzMzNHoiLz48cGF0aCBmaWxsPSIjNTM1RTgwIiBkPSJNODYuMjQxMjggNDQzLjczMzMzM2MtNi44MjY2NjcgMC0xMy42NTMzMzMtMy40MTMzMzMtMTcuMDY2NjY3LTEwLjI0bC0zNC4xMzMzMzMtODUuMzMzMzMzYy0zLjQxMzMzMy0xMC4yNCAwLTE3LjA2NjY2NyAxMC4yNC0yMy44OTMzMzMgMTAuMjQtMy40MTMzMzMgMTcuMDY2NjY3IDAgMjAuNDggMTAuMjRsMzQuMTMzMzMzIDg1LjMzMzMzM2MzLjQxMzMzMyAxMC4yNCAwIDE3LjA2NjY2Ny0xMC4yNCAyMy44OTMzMzNoLTMuNDEzMzMzek04MjAuMTA3OTQ3IDc1MC45MzMzMzNjLTU4LjAyNjY2NyAwLTEwMi40LTQ3Ljc4NjY2Ny0xMDIuNC0xMDIuNCAwLTU4LjAyNjY2NyA0Ny43ODY2NjctMTAyLjQgMTAyLjQtMTAyLjRzMTAyLjQgNDcuNzg2NjY3IDEwMi40IDEwMi40LTQ0LjM3MzMzMyAxMDIuNC0xMDIuNCAxMDIuNHogbTAtMTcwLjY2NjY2NmMtMzcuNTQ2NjY3IDAtNjguMjY2NjY3IDMwLjcyLTY4LjI2NjY2NyA2OC4yNjY2NjZzMzAuNzIgNjguMjY2NjY3IDY4LjI2NjY2NyA2OC4yNjY2NjcgNjguMjY2NjY3LTMwLjcyIDY4LjI2NjY2Ni02OC4yNjY2NjctMzAuNzItNjguMjY2NjY3LTY4LjI2NjY2Ni02OC4yNjY2NjZ6TTIwNS43MDc5NDcgNzUwLjkzMzMzM2MtNTguMDI2NjY3IDAtMTAyLjQtNDQuMzczMzMzLTEwMi40LTEwMi40czQ0LjM3MzMzMy0xMDIuNCAxMDIuNC0xMDIuNCAxMDIuNCA0NC4zNzMzMzMgMTAyLjQgMTAyLjQtNDQuMzczMzMzIDEwMi40LTEwMi40IDEwMi40eiBtMC0xNzAuNjY2NjY2Yy0zNy41NDY2NjcgMC02OC4yNjY2NjcgMzAuNzItNjguMjY2NjY3IDY4LjI2NjY2NnMzMC43MiA2OC4yNjY2NjcgNjguMjY2NjY3IDY4LjI2NjY2NyA2OC4yNjY2NjctMzAuNzIgNjguMjY2NjY2LTY4LjI2NjY2Ny0zMC43Mi02OC4yNjY2NjctNjguMjY2NjY2LTY4LjI2NjY2NnoiLz48L3N2Zz4=;" parent="1" vertex="1">
          <mxGeometry x="74.12" y="398.58" width="35.13" height="35.13" as="geometry" />
        </mxCell>
        <mxCell id="jsef9Xo3sPEI110m0m4C-28" value="" style="shape=flexArrow;endArrow=classic;html=1;rounded=0;strokeColor=none;fillColor=#FDD276;width=8.070175438596491;endSize=3.5508771929824556;endWidth=11.905201600492457;" parent="1" edge="1">
          <mxGeometry width="50" height="50" relative="1" as="geometry">
            <mxPoint x="116.11999999999995" y="415.28999999999996" as="sourcePoint" />
            <mxPoint x="146.11999999999995" y="415.72" as="targetPoint" />
          </mxGeometry>
        </mxCell>
        <mxCell id="jsef9Xo3sPEI110m0m4C-29" value="" style="shape=flexArrow;endArrow=classic;html=1;rounded=0;strokeColor=none;fillColor=#FDD276;width=8.070175438596491;endSize=3.5508771929824556;endWidth=11.905201600492457;" parent="1" edge="1">
          <mxGeometry width="50" height="50" relative="1" as="geometry">
            <mxPoint x="498.12" y="480.31999999999994" as="sourcePoint" />
            <mxPoint x="528.12" y="480.75" as="targetPoint" />
          </mxGeometry>
        </mxCell>
        <mxCell id="jsef9Xo3sPEI110m0m4C-30" value="" style="shape=flexArrow;endArrow=classic;html=1;rounded=0;strokeColor=none;fillColor=#FDD276;width=8.070175438596491;endSize=3.5508771929824556;endWidth=11.905201600492457;" parent="1" edge="1">
          <mxGeometry width="50" height="50" relative="1" as="geometry">
            <mxPoint x="497.1199999999999" y="414.03999999999996" as="sourcePoint" />
            <mxPoint x="527.1199999999999" y="414.47" as="targetPoint" />
          </mxGeometry>
        </mxCell>
      </root>
    </mxGraphModel>
  </diagram>
</mxfile>
